<svg xmlns="http://www.w3.org/2000/svg" width="1371" height="33"><path d="M7.5 3.2c0 1-.8 1.7-1.7 1.7-1 0-1.8-.8-1.8-1.7 0-1 .8-1.7 1.7-1.7 1-.1 1.8.7 1.8 1.7m10.4 0c0 1-.8 1.7-1.7 1.7-1 0-1.7-.8-1.7-1.7 0-1 .8-1.7 1.7-1.7 1-.1 1.7.7 1.7 1.7m10.5 0c0 1-.8 1.7-1.7 1.7-1 0-1.7-.8-1.7-1.7 0-1 .8-1.7 1.7-1.7.9-.1 1.7.7 1.7 1.7m10.4 0c0 1-.8 1.7-1.7 1.7-1 0-1.7-.8-1.7-1.7 0-1 .8-1.7 1.7-1.7 1-.1 1.7.7 1.7 1.7m10.5 0c0 1-.8 1.7-1.7 1.7-1 0-1.7-.8-1.7-1.7 0-1 .8-1.7 1.7-1.7.9-.1 1.7.7 1.7 1.7m10.5 0c0 1-.8 1.7-1.7 1.7-1 0-1.8-.8-1.8-1.7 0-1 .8-1.7 1.8-1.7.9-.1 1.7.7 1.7 1.7m10.4 0c0 1-.8 1.7-1.7 1.7-1 0-1.7-.8-1.7-1.7 0-1 .8-1.7 1.7-1.7.9-.1 1.7.7 1.7 1.7m10.5 0c0 1-.8 1.7-1.7 1.7-1 0-1.7-.8-1.7-1.7 0-1 .8-1.7 1.7-1.7.9-.1 1.7.7 1.7 1.7m10.4 0c0 1-.8 1.7-1.7 1.7-1 0-1.7-.8-1.7-1.7 0-1 .8-1.7 1.7-1.7 1-.1 1.7.7 1.7 1.7m10.5 0c0 1-.8 1.7-1.7 1.7-1 0-1.7-.8-1.7-1.7 0-1 .8-1.7 1.7-1.7.9-.1 1.7.7 1.7 1.7m10.4 0c0 1-.8 1.7-1.7 1.7-1 0-1.7-.8-1.7-1.7 0-1 .8-1.7 1.7-1.7 1-.1 1.7.7 1.7 1.7m10.5 0c0 1-.8 1.7-1.7 1.7-1 0-1.7-.8-1.7-1.7 0-1 .8-1.7 1.7-1.7.9-.1 1.7.7 1.7 1.7M12.7 9.7c0 1-.8 1.7-1.7 1.7-1 0-1.7-.8-1.7-1.7C9.2 8.8 10 8 11 8c.9 0 1.7.8 1.7 1.7m10.5 0c0 1-.8 1.7-1.7 1.7-1 0-1.7-.8-1.7-1.7 0-1 .8-1.7 1.7-1.7.9 0 1.7.8 1.7 1.7m10.4 0c0 1-.8 1.7-1.7 1.7-1 0-1.7-.8-1.7-1.7 0-1 .8-1.7 1.7-1.7.9 0 1.7.8 1.7 1.7m10.5 0c0 1-.8 1.7-1.7 1.7-1 0-1.7-.8-1.7-1.7 0-1 .8-1.7 1.7-1.7.9 0 1.7.8 1.7 1.7m10.4 0c0 1-.8 1.7-1.7 1.7-1 0-1.7-.8-1.7-1.7 0-1 .8-1.7 1.7-1.7 1 0 1.7.8 1.7 1.7m10.5 0c0 1-.8 1.7-1.7 1.7-1 0-1.7-.8-1.7-1.7 0-1 .8-1.7 1.7-1.7.9 0 1.7.8 1.7 1.7m10.4 0c0 1-.8 1.7-1.7 1.7-1 0-1.7-.8-1.7-1.7 0-1 .8-1.7 1.7-1.7 1 0 1.7.8 1.7 1.7m10.5 0c0 1-.8 1.7-1.7 1.7-1 0-1.7-.8-1.7-1.7 0-1 .8-1.7 1.7-1.7.9 0 1.7.8 1.7 1.7m10.5 0c0 1-.8 1.7-1.7 1.7-1 0-1.7-.8-1.7-1.7 0-1 .8-1.7 1.7-1.7.9 0 1.7.8 1.7 1.7m10.4 0c0 1-.8 1.7-1.7 1.7-.9 0-1.7-.8-1.7-1.7 0-1 .8-1.7 1.7-1.7.9 0 1.7.8 1.7 1.7m10.5 0c0 1-.8 1.7-1.7 1.7-1 0-1.7-.8-1.7-1.7 0-1 .8-1.7 1.7-1.7.9 0 1.7.8 1.7 1.7m10.4 0c0 1-.8 1.7-1.7 1.7-1 0-1.7-.8-1.7-1.7 0-1 .8-1.7 1.7-1.7 1 0 1.7.8 1.7 1.7M7.5 16.3c0 1-.8 1.7-1.7 1.7-1 0-1.7-.8-1.7-1.7 0-.9.8-1.7 1.7-1.7.9-.1 1.7.7 1.7 1.7m10.4 0c0 1-.8 1.7-1.7 1.7-1 0-1.7-.8-1.7-1.7 0-.9.8-1.7 1.7-1.7 1-.1 1.7.7 1.7 1.7m10.5 0c0 1-.8 1.7-1.7 1.7-1 0-1.7-.8-1.7-1.7 0-.9.8-1.7 1.7-1.7.9-.1 1.7.7 1.7 1.7m10.4 0c0 1-.8 1.7-1.7 1.7-1 0-1.7-.8-1.7-1.7 0-.9.8-1.7 1.7-1.7 1-.1 1.7.7 1.7 1.7m10.5 0c0 1-.8 1.7-1.7 1.7-1 0-1.7-.8-1.7-1.7 0-.9.8-1.7 1.7-1.7.9-.1 1.7.7 1.7 1.7m10.5 0c0 1-.8 1.7-1.7 1.7-1 0-1.8-.8-1.8-1.7 0-.9.8-1.7 1.8-1.7.9-.1 1.7.7 1.7 1.7m10.4 0c0 1-.8 1.7-1.7 1.7-1 0-1.7-.8-1.7-1.7 0-.9.8-1.7 1.7-1.7.9-.1 1.7.7 1.7 1.7m10.5 0c0 1-.8 1.7-1.7 1.7-1 0-1.7-.8-1.7-1.7 0-.9.8-1.7 1.7-1.7.9-.1 1.7.7 1.7 1.7m10.4 0c0 1-.8 1.7-1.7 1.7-1 0-1.7-.8-1.7-1.7 0-.9.8-1.7 1.7-1.7 1-.1 1.7.7 1.7 1.7m10.5 0c0 1-.8 1.7-1.7 1.7-1 0-1.7-.8-1.7-1.7 0-.9.8-1.7 1.7-1.7.9-.1 1.7.7 1.7 1.7m10.4 0c0 1-.8 1.7-1.7 1.7-1 0-1.7-.8-1.7-1.7 0-.9.8-1.7 1.7-1.7 1-.1 1.7.7 1.7 1.7m10.5 0c0 1-.8 1.7-1.7 1.7-1 0-1.7-.8-1.7-1.7 0-.9.8-1.7 1.7-1.7.9-.1 1.7.7 1.7 1.7M12.7 22.8c0 1-.8 1.7-1.7 1.7-1 0-1.7-.8-1.7-1.7 0-1 .8-1.7 1.7-1.7.9 0 1.7.8 1.7 1.7m10.5 0c0 1-.8 1.7-1.7 1.7-1 0-1.7-.8-1.7-1.7 0-1 .8-1.7 1.7-1.7.9 0 1.7.8 1.7 1.7m10.4 0c0 1-.8 1.7-1.7 1.7-1 0-1.7-.8-1.7-1.7 0-1 .8-1.7 1.7-1.7.9 0 1.7.8 1.7 1.7m10.5 0c0 1-.8 1.7-1.7 1.7-1 0-1.7-.8-1.7-1.7 0-1 .8-1.7 1.7-1.7.9 0 1.7.8 1.7 1.7m10.4 0c0 1-.8 1.7-1.7 1.7-1 0-1.7-.8-1.7-1.7 0-1 .8-1.7 1.7-1.7 1 0 1.7.8 1.7 1.7m10.5 0c0 1-.8 1.7-1.7 1.7-1 0-1.7-.8-1.7-1.7 0-1 .8-1.7 1.7-1.7.9 0 1.7.8 1.7 1.7m10.4 0c0 1-.8 1.7-1.7 1.7-1 0-1.7-.8-1.7-1.7 0-1 .8-1.7 1.7-1.7 1 0 1.7.8 1.7 1.7m10.5 0c0 1-.8 1.7-1.7 1.7-1 0-1.7-.8-1.7-1.7 0-1 .8-1.7 1.7-1.7.9 0 1.7.8 1.7 1.7m10.5 0c0 1-.8 1.7-1.7 1.7-1 0-1.7-.8-1.7-1.7 0-1 .8-1.7 1.7-1.7.9 0 1.7.8 1.7 1.7m10.4 0c0 1-.8 1.7-1.7 1.7-.9 0-1.7-.8-1.7-1.7 0-1 .8-1.7 1.7-1.7.9 0 1.7.8 1.7 1.7m10.5 0c0 1-.8 1.7-1.7 1.7-1 0-1.7-.8-1.7-1.7 0-1 .8-1.7 1.7-1.7.9 0 1.7.8 1.7 1.7m10.4 0c0 1-.8 1.7-1.7 1.7-1 0-1.7-.8-1.7-1.7 0-1 .8-1.7 1.7-1.7 1 0 1.7.8 1.7 1.7M7.5 29.4c0 1-.8 1.7-1.7 1.7-1 0-1.7-.8-1.7-1.7 0-1 .8-1.7 1.7-1.7.9-.1 1.7.7 1.7 1.7m10.4 0c0 1-.8 1.7-1.7 1.7-1 0-1.7-.8-1.7-1.7 0-1 .8-1.7 1.7-1.7 1-.1 1.7.7 1.7 1.7m10.5 0c0 1-.8 1.7-1.7 1.7-1 0-1.7-.8-1.7-1.7 0-1 .8-1.7 1.7-1.7.9-.1 1.7.7 1.7 1.7m10.4 0c0 1-.8 1.7-1.7 1.7-1 0-1.7-.8-1.7-1.7 0-1 .8-1.7 1.7-1.7 1-.1 1.7.7 1.7 1.7m10.5 0c0 1-.8 1.7-1.7 1.7-1 0-1.7-.8-1.7-1.7 0-1 .8-1.7 1.7-1.7.9-.1 1.7.7 1.7 1.7m10.5 0c0 1-.8 1.7-1.7 1.7-1 0-1.8-.8-1.8-1.7 0-1 .8-1.7 1.8-1.7.9-.1 1.7.7 1.7 1.7m10.4 0c0 1-.8 1.7-1.7 1.7-1 0-1.7-.8-1.7-1.7 0-1 .8-1.7 1.7-1.7.9-.1 1.7.7 1.7 1.7m10.5 0c0 1-.8 1.7-1.7 1.7-1 0-1.7-.8-1.7-1.7 0-1 .8-1.7 1.7-1.7.9-.1 1.7.7 1.7 1.7m10.4 0c0 1-.8 1.7-1.7 1.7-1 0-1.7-.8-1.7-1.7 0-1 .8-1.7 1.7-1.7 1-.1 1.7.7 1.7 1.7m10.5 0c0 1-.8 1.7-1.7 1.7-1 0-1.7-.8-1.7-1.7 0-1 .8-1.7 1.7-1.7.9-.1 1.7.7 1.7 1.7m10.4 0c0 1-.8 1.7-1.7 1.7-1 0-1.7-.8-1.7-1.7 0-1 .8-1.7 1.7-1.7 1-.1 1.7.7 1.7 1.7m10.5 0c0 1-.8 1.7-1.7 1.7-1 0-1.7-.8-1.7-1.7 0-1 .8-1.7 1.7-1.7.9-.1 1.7.7 1.7 1.7m11.2-26.2c0 1-.8 1.7-1.7 1.7-1 0-1.7-.8-1.7-1.7 0-1 .8-1.7 1.7-1.7.9-.1 1.7.7 1.7 1.7m10.4 0c0 1-.8 1.7-1.7 1.7-1 0-1.7-.8-1.7-1.7 0-1 .8-1.7 1.7-1.7 1-.1 1.7.7 1.7 1.7m10.5 0c0 1-.8 1.7-1.7 1.7-1 0-1.7-.8-1.7-1.7 0-1 .8-1.7 1.7-1.7.9-.1 1.7.7 1.7 1.7m10.5 0c0 1-.8 1.7-1.7 1.7-1 0-1.7-.8-1.7-1.7 0-1 .8-1.7 1.7-1.7.9-.1 1.7.7 1.7 1.7m10.4 0c0 1-.8 1.7-1.7 1.7-1 0-1.7-.8-1.7-1.7 0-1 .8-1.7 1.7-1.7.9-.1 1.7.7 1.7 1.7m10.5 0c0 1-.8 1.7-1.7 1.7-1 0-1.7-.8-1.7-1.7 0-1 .8-1.7 1.7-1.7.9-.1 1.7.7 1.7 1.7m10.4 0c0 1-.8 1.7-1.7 1.7-1 0-1.7-.8-1.7-1.7 0-1 .8-1.7 1.7-1.7 1-.1 1.7.7 1.7 1.7m10.5 0c0 1-.8 1.7-1.7 1.7-1 0-1.7-.8-1.7-1.7 0-1 .8-1.7 1.7-1.7.9-.1 1.7.7 1.7 1.7m10.5 0c0 1-.8 1.7-1.7 1.7-1 0-1.7-.8-1.7-1.7 0-1 .8-1.7 1.7-1.7.9-.1 1.7.7 1.7 1.7m10.4 0c0 1-.8 1.7-1.7 1.7-1 0-1.7-.8-1.7-1.7 0-1 .8-1.7 1.7-1.7.9-.1 1.7.7 1.7 1.7m10.5 0c0 1-.8 1.7-1.7 1.7-1 0-1.7-.8-1.7-1.7 0-1 .8-1.7 1.7-1.7.9-.1 1.7.7 1.7 1.7m10.4 0c0 1-.8 1.7-1.7 1.7-1 0-1.7-.8-1.7-1.7 0-1 .8-1.7 1.7-1.7.9-.1 1.7.7 1.7 1.7M138.9 9.7c0 1-.8 1.7-1.7 1.7-1 0-1.7-.8-1.7-1.7 0-1 .8-1.7 1.7-1.7.9 0 1.7.8 1.7 1.7m10.5 0c0 1-.8 1.7-1.7 1.7-1 0-1.7-.8-1.7-1.7 0-1 .8-1.7 1.7-1.7.9 0 1.7.8 1.7 1.7m10.4 0c0 1-.8 1.7-1.7 1.7-1 0-1.7-.8-1.7-1.7 0-1 .8-1.7 1.7-1.7 1 0 1.7.8 1.7 1.7m10.5 0c0 1-.8 1.7-1.7 1.7-1 0-1.7-.8-1.7-1.7 0-1 .8-1.7 1.7-1.7.9 0 1.7.8 1.7 1.7m10.4 0c0 1-.8 1.7-1.7 1.7-1 0-1.7-.8-1.7-1.7 0-1 .8-1.7 1.7-1.7 1 0 1.7.8 1.7 1.7m10.5 0c0 1-.8 1.7-1.7 1.7-1 0-1.7-.8-1.7-1.7 0-1 .8-1.7 1.7-1.7.9 0 1.7.8 1.7 1.7m10.5 0c0 1-.8 1.7-1.7 1.7-1 0-1.7-.8-1.7-1.7 0-1 .8-1.7 1.7-1.7.9 0 1.7.8 1.7 1.7m10.4 0c0 1-.8 1.7-1.7 1.7-1 0-1.7-.8-1.7-1.7 0-1 .8-1.7 1.7-1.7.9 0 1.7.8 1.7 1.7m10.5 0c0 1-.8 1.7-1.7 1.7-1 0-1.7-.8-1.7-1.7 0-1 .8-1.7 1.7-1.7.9 0 1.7.8 1.7 1.7m10.4 0c0 1-.8 1.7-1.7 1.7-1 0-1.7-.8-1.7-1.7 0-1 .8-1.7 1.7-1.7 1 0 1.7.8 1.7 1.7m10.5 0c0 1-.8 1.7-1.7 1.7-1 0-1.7-.8-1.7-1.7 0-1 .8-1.7 1.7-1.7.9 0 1.7.8 1.7 1.7m10.5 0c0 1-.8 1.7-1.7 1.7-1 0-1.7-.8-1.7-1.7 0-1 .8-1.7 1.7-1.7.9 0 1.7.8 1.7 1.7m-120.3 6.6c0 1-.8 1.7-1.7 1.7-1 0-1.7-.8-1.7-1.7 0-.9.8-1.7 1.7-1.7.9-.1 1.7.7 1.7 1.7m10.4 0c0 1-.8 1.7-1.7 1.7-1 0-1.7-.8-1.7-1.7 0-.9.8-1.7 1.7-1.7 1-.1 1.7.7 1.7 1.7m10.5 0c0 1-.8 1.7-1.7 1.7-1 0-1.7-.8-1.7-1.7 0-.9.8-1.7 1.7-1.7.9-.1 1.7.7 1.7 1.7m10.5 0c0 1-.8 1.7-1.7 1.7-1 0-1.7-.8-1.7-1.7 0-.9.8-1.7 1.7-1.7.9-.1 1.7.7 1.7 1.7m10.4 0c0 1-.8 1.7-1.7 1.7-1 0-1.7-.8-1.7-1.7 0-.9.8-1.7 1.7-1.7.9-.1 1.7.7 1.7 1.7m10.5 0c0 1-.8 1.7-1.7 1.7-1 0-1.7-.8-1.7-1.7 0-.9.8-1.7 1.7-1.7.9-.1 1.7.7 1.7 1.7m10.4 0c0 1-.8 1.7-1.7 1.7-1 0-1.7-.8-1.7-1.7 0-.9.8-1.7 1.7-1.7 1-.1 1.7.7 1.7 1.7m10.5 0c0 1-.8 1.7-1.7 1.7-1 0-1.7-.8-1.7-1.7 0-.9.8-1.7 1.7-1.7.9-.1 1.7.7 1.7 1.7m10.5 0c0 1-.8 1.7-1.7 1.7-1 0-1.7-.8-1.7-1.7 0-.9.8-1.7 1.7-1.7.9-.1 1.7.7 1.7 1.7m10.4 0c0 1-.8 1.7-1.7 1.7-1 0-1.7-.8-1.7-1.7 0-.9.8-1.7 1.7-1.7.9-.1 1.7.7 1.7 1.7m10.5 0c0 1-.8 1.7-1.7 1.7-1 0-1.7-.8-1.7-1.7 0-.9.8-1.7 1.7-1.7.9-.1 1.7.7 1.7 1.7m10.4 0c0 1-.8 1.7-1.7 1.7-1 0-1.7-.8-1.7-1.7 0-.9.8-1.7 1.7-1.7.9-.1 1.7.7 1.7 1.7m-109.8 6.5c0 1-.8 1.7-1.7 1.7-1 0-1.7-.8-1.7-1.7 0-1 .8-1.7 1.7-1.7.9 0 1.7.8 1.7 1.7m10.5 0c0 1-.8 1.7-1.7 1.7-1 0-1.7-.8-1.7-1.7 0-1 .8-1.7 1.7-1.7.9 0 1.7.8 1.7 1.7m10.4 0c0 1-.8 1.7-1.7 1.7-1 0-1.7-.8-1.7-1.7 0-1 .8-1.7 1.7-1.7 1 0 1.7.8 1.7 1.7m10.5 0c0 1-.8 1.7-1.7 1.7-1 0-1.7-.8-1.7-1.7 0-1 .8-1.7 1.7-1.7.9 0 1.7.8 1.7 1.7m10.4 0c0 1-.8 1.7-1.7 1.7-1 0-1.7-.8-1.7-1.7 0-1 .8-1.7 1.7-1.7 1 0 1.7.8 1.7 1.7m10.5 0c0 1-.8 1.7-1.7 1.7-1 0-1.7-.8-1.7-1.7 0-1 .8-1.7 1.7-1.7.9 0 1.7.8 1.7 1.7m10.5 0c0 1-.8 1.7-1.7 1.7-1 0-1.7-.8-1.7-1.7 0-1 .8-1.7 1.7-1.7.9 0 1.7.8 1.7 1.7m10.4 0c0 1-.8 1.7-1.7 1.7-1 0-1.7-.8-1.7-1.7 0-1 .8-1.7 1.7-1.7.9 0 1.7.8 1.7 1.7m10.5 0c0 1-.8 1.7-1.7 1.7-1 0-1.7-.8-1.7-1.7 0-1 .8-1.7 1.7-1.7.9 0 1.7.8 1.7 1.7m10.4 0c0 1-.8 1.7-1.7 1.7-1 0-1.7-.8-1.7-1.7 0-1 .8-1.7 1.7-1.7 1 0 1.7.8 1.7 1.7m10.5 0c0 1-.8 1.7-1.7 1.7-1 0-1.7-.8-1.7-1.7 0-1 .8-1.7 1.7-1.7.9 0 1.7.8 1.7 1.7m10.5 0c0 1-.8 1.7-1.7 1.7-1 0-1.7-.8-1.7-1.7 0-1 .8-1.7 1.7-1.7.9 0 1.7.8 1.7 1.7m-120.3 6.6c0 1-.8 1.7-1.7 1.7-1 0-1.7-.8-1.7-1.7 0-1 .8-1.7 1.7-1.7.9-.1 1.7.7 1.7 1.7m10.4 0c0 1-.8 1.7-1.7 1.7-1 0-1.7-.8-1.7-1.7 0-1 .8-1.7 1.7-1.7 1-.1 1.7.7 1.7 1.7m10.5 0c0 1-.8 1.7-1.7 1.7-1 0-1.7-.8-1.7-1.7 0-1 .8-1.7 1.7-1.7.9-.1 1.7.7 1.7 1.7m10.5 0c0 1-.8 1.7-1.7 1.7-1 0-1.7-.8-1.7-1.7 0-1 .8-1.7 1.7-1.7.9-.1 1.7.7 1.7 1.7m10.4 0c0 1-.8 1.7-1.7 1.7-1 0-1.7-.8-1.7-1.7 0-1 .8-1.7 1.7-1.7.9-.1 1.7.7 1.7 1.7m10.5 0c0 1-.8 1.7-1.7 1.7-1 0-1.7-.8-1.7-1.7 0-1 .8-1.7 1.7-1.7.9-.1 1.7.7 1.7 1.7m10.4 0c0 1-.8 1.7-1.7 1.7-1 0-1.7-.8-1.7-1.7 0-1 .8-1.7 1.7-1.7 1-.1 1.7.7 1.7 1.7m10.5 0c0 1-.8 1.7-1.7 1.7-1 0-1.7-.8-1.7-1.7 0-1 .8-1.7 1.7-1.7.9-.1 1.7.7 1.7 1.7m10.5 0c0 1-.8 1.7-1.7 1.7-1 0-1.7-.8-1.7-1.7 0-1 .8-1.7 1.7-1.7.9-.1 1.7.7 1.7 1.7m10.4 0c0 1-.8 1.7-1.7 1.7-1 0-1.7-.8-1.7-1.7 0-1 .8-1.7 1.7-1.7.9-.1 1.7.7 1.7 1.7m10.5 0c0 1-.8 1.7-1.7 1.7-1 0-1.7-.8-1.7-1.7 0-1 .8-1.7 1.7-1.7.9-.1 1.7.7 1.7 1.7m10.4 0c0 1-.8 1.7-1.7 1.7-1 0-1.7-.8-1.7-1.7 0-1 .8-1.7 1.7-1.7.9-.1 1.7.7 1.7 1.7m11.2-26.2c0 1-.8 1.7-1.7 1.7-1 0-1.7-.8-1.7-1.7 0-1 .8-1.7 1.7-1.7.9-.1 1.7.7 1.7 1.7m10.5 0c0 1-.8 1.7-1.7 1.7-1 0-1.7-.8-1.7-1.7 0-1 .8-1.7 1.7-1.7.9-.1 1.7.7 1.7 1.7m10.4 0c0 1-.8 1.7-1.7 1.7-1 0-1.7-.8-1.7-1.7 0-1 .8-1.7 1.7-1.7.9-.1 1.7.7 1.7 1.7m10.5 0c0 1-.8 1.7-1.7 1.7-1 0-1.7-.8-1.7-1.7 0-1 .8-1.7 1.7-1.7.9-.1 1.7.7 1.7 1.7m10.4 0c0 1-.8 1.7-1.7 1.7-1 0-1.7-.8-1.7-1.7 0-1 .8-1.7 1.7-1.7 1-.1 1.7.7 1.7 1.7m10.5 0c0 1-.8 1.7-1.7 1.7-1 0-1.7-.8-1.7-1.7 0-1 .8-1.7 1.7-1.7.9-.1 1.7.7 1.7 1.7m10.4 0c0 1-.8 1.7-1.7 1.7-1 0-1.7-.8-1.7-1.7 0-1 .8-1.7 1.7-1.7 1-.1 1.7.7 1.7 1.7m10.5 0c0 1-.8 1.7-1.7 1.7-1 0-1.7-.8-1.7-1.7 0-1 .8-1.7 1.7-1.7.9-.1 1.7.7 1.7 1.7m10.5 0c0 1-.8 1.7-1.7 1.7-1 0-1.7-.8-1.7-1.7 0-1 .8-1.7 1.7-1.7.9-.1 1.7.7 1.7 1.7m10.4 0c0 1-.8 1.7-1.7 1.7-1 0-1.7-.8-1.7-1.7 0-1 .8-1.7 1.7-1.7.9-.1 1.7.7 1.7 1.7m10.5 0c0 1-.8 1.7-1.7 1.7-.9 0-1.8-.8-1.8-1.7 0-1 .8-1.7 1.7-1.7.9 0 1.8.7 1.8 1.7m10.4 0c0 1-.8 1.7-1.7 1.7-.9 0-1.7-.8-1.7-1.7 0-1 .8-1.7 1.7-1.7.9 0 1.7.7 1.7 1.7M265.1 9.7c0 1-.8 1.7-1.7 1.7-1 0-1.7-.8-1.7-1.7 0-1 .8-1.7 1.7-1.7.9 0 1.7.8 1.7 1.7m10.5 0c0 1-.8 1.7-1.7 1.7-1 0-1.7-.8-1.7-1.7 0-1 .8-1.7 1.7-1.7.9 0 1.7.8 1.7 1.7m10.5 0c0 1-.8 1.7-1.7 1.7-1 0-1.7-.8-1.7-1.7 0-1 .8-1.7 1.7-1.7.9 0 1.7.8 1.7 1.7m10.4 0c0 1-.8 1.7-1.7 1.7-1 0-1.7-.8-1.7-1.7 0-1 .8-1.7 1.7-1.7.9 0 1.7.8 1.7 1.7m10.5 0c0 1-.8 1.7-1.7 1.7-.9 0-1.7-.8-1.7-1.7 0-1 .8-1.7 1.7-1.7.9 0 1.7.8 1.7 1.7m10.4 0c0 1-.8 1.7-1.7 1.7-1 0-1.7-.8-1.7-1.7 0-1 .8-1.7 1.7-1.7.9 0 1.7.8 1.7 1.7m10.5 0c0 1-.8 1.7-1.7 1.7-1 0-1.7-.8-1.7-1.7 0-1 .8-1.7 1.7-1.7.9 0 1.7.8 1.7 1.7m10.4 0c0 1-.8 1.7-1.7 1.7-1 0-1.7-.8-1.7-1.7 0-1 .8-1.7 1.7-1.7 1 0 1.7.8 1.7 1.7m10.5 0c0 1-.8 1.7-1.7 1.7-1 0-1.7-.8-1.7-1.7 0-1 .8-1.7 1.7-1.7.9 0 1.7.8 1.7 1.7m10.5 0c0 1-.8 1.7-1.7 1.7-1 0-1.7-.8-1.7-1.7 0-1 .8-1.7 1.7-1.7.9 0 1.7.8 1.7 1.7m10.4 0c0 1-.8 1.7-1.7 1.7-1 0-1.7-.8-1.7-1.7 0-1 .8-1.7 1.7-1.7.9 0 1.7.8 1.7 1.7m10.5 0c0 1-.8 1.7-1.7 1.7-.9 0-1.7-.8-1.7-1.7 0-1 .8-1.7 1.7-1.7.9 0 1.7.8 1.7 1.7m-120.3 6.6c0 1-.8 1.7-1.7 1.7-1 0-1.7-.8-1.7-1.7 0-.9.8-1.7 1.7-1.7.9-.1 1.7.7 1.7 1.7m10.5 0c0 1-.8 1.7-1.7 1.7-1 0-1.7-.8-1.7-1.7 0-.9.8-1.7 1.7-1.7.9-.1 1.7.7 1.7 1.7m10.4 0c0 1-.8 1.7-1.7 1.7-1 0-1.7-.8-1.7-1.7 0-.9.8-1.7 1.7-1.7.9-.1 1.7.7 1.7 1.7m10.5 0c0 1-.8 1.7-1.7 1.7-1 0-1.7-.8-1.7-1.7 0-.9.8-1.7 1.7-1.7.9-.1 1.7.7 1.7 1.7m10.4 0c0 1-.8 1.7-1.7 1.7-1 0-1.7-.8-1.7-1.7 0-.9.8-1.7 1.7-1.7 1-.1 1.7.7 1.7 1.7m10.5 0c0 1-.8 1.7-1.7 1.7-1 0-1.7-.8-1.7-1.7 0-.9.8-1.7 1.7-1.7.9-.1 1.7.7 1.7 1.7m10.4 0c0 1-.8 1.7-1.7 1.7-1 0-1.7-.8-1.7-1.7 0-.9.8-1.7 1.7-1.7 1-.1 1.7.7 1.7 1.7m10.5 0c0 1-.8 1.7-1.7 1.7-1 0-1.7-.8-1.7-1.7 0-.9.8-1.7 1.7-1.7.9-.1 1.7.7 1.7 1.7m10.5 0c0 1-.8 1.7-1.7 1.7-1 0-1.7-.8-1.7-1.7 0-.9.8-1.7 1.7-1.7.9-.1 1.7.7 1.7 1.7m10.4 0c0 1-.8 1.7-1.7 1.7-1 0-1.7-.8-1.7-1.7 0-.9.8-1.7 1.7-1.7.9-.1 1.7.7 1.7 1.7m10.5 0c0 1-.8 1.7-1.7 1.7-.9 0-1.7-.8-1.7-1.7 0-.9.8-1.7 1.7-1.7.9 0 1.7.7 1.7 1.7m10.4 0c0 1-.8 1.7-1.7 1.7-.9 0-1.7-.8-1.7-1.7 0-.9.8-1.7 1.7-1.7.9 0 1.7.7 1.7 1.7m-109.8 6.5c0 1-.8 1.7-1.7 1.7-1 0-1.7-.8-1.7-1.7 0-1 .8-1.7 1.7-1.7.9 0 1.7.8 1.7 1.7m10.5 0c0 1-.8 1.7-1.7 1.7-1 0-1.7-.8-1.7-1.7 0-1 .8-1.7 1.7-1.7.9 0 1.7.8 1.7 1.7m10.5 0c0 1-.8 1.7-1.7 1.7-1 0-1.7-.8-1.7-1.7 0-1 .8-1.7 1.7-1.7.9 0 1.7.8 1.7 1.7m10.4 0c0 1-.8 1.7-1.7 1.7-1 0-1.7-.8-1.7-1.7 0-1 .8-1.7 1.7-1.7.9 0 1.7.8 1.7 1.7m10.5 0c0 1-.8 1.7-1.7 1.7-.9 0-1.7-.8-1.7-1.7 0-1 .8-1.7 1.7-1.7.9 0 1.7.8 1.7 1.7m10.4 0c0 1-.8 1.7-1.7 1.7-1 0-1.7-.8-1.7-1.7 0-1 .8-1.7 1.7-1.7.9 0 1.7.8 1.7 1.7m10.5 0c0 1-.8 1.7-1.7 1.7-1 0-1.7-.8-1.7-1.7 0-1 .8-1.7 1.7-1.7.9 0 1.7.8 1.7 1.7m10.4 0c0 1-.8 1.7-1.7 1.7-1 0-1.7-.8-1.7-1.7 0-1 .8-1.7 1.7-1.7 1 0 1.7.8 1.7 1.7m10.5 0c0 1-.8 1.7-1.7 1.7-1 0-1.7-.8-1.7-1.7 0-1 .8-1.7 1.7-1.7.9 0 1.7.8 1.7 1.7m10.5 0c0 1-.8 1.7-1.7 1.7-1 0-1.7-.8-1.7-1.7 0-1 .8-1.7 1.7-1.7.9 0 1.7.8 1.7 1.7m10.4 0c0 1-.8 1.7-1.7 1.7-1 0-1.7-.8-1.7-1.7 0-1 .8-1.7 1.7-1.7.9 0 1.7.8 1.7 1.7m10.5 0c0 1-.8 1.7-1.7 1.7-.9 0-1.7-.8-1.7-1.7 0-1 .8-1.7 1.7-1.7.9 0 1.7.8 1.7 1.7m-120.3 6.6c0 1-.8 1.7-1.7 1.7-1 0-1.7-.8-1.7-1.7 0-1 .8-1.7 1.7-1.7.9-.1 1.7.7 1.7 1.7m10.5 0c0 1-.8 1.7-1.7 1.7-1 0-1.7-.8-1.7-1.7 0-1 .8-1.7 1.7-1.7.9-.1 1.7.7 1.7 1.7m10.4 0c0 1-.8 1.7-1.7 1.7-1 0-1.7-.8-1.7-1.7 0-1 .8-1.7 1.7-1.7.9-.1 1.7.7 1.7 1.7m10.5 0c0 1-.8 1.7-1.7 1.7-1 0-1.7-.8-1.7-1.7 0-1 .8-1.7 1.7-1.7.9-.1 1.7.7 1.7 1.7m10.4 0c0 1-.8 1.7-1.7 1.7-1 0-1.7-.8-1.7-1.7 0-1 .8-1.7 1.7-1.7 1-.1 1.7.7 1.7 1.7m10.5 0c0 1-.8 1.7-1.7 1.7-1 0-1.7-.8-1.7-1.7 0-1 .8-1.7 1.7-1.7.9-.1 1.7.7 1.7 1.7m10.4 0c0 1-.8 1.7-1.7 1.7-1 0-1.7-.8-1.7-1.7 0-1 .8-1.7 1.7-1.7 1-.1 1.7.7 1.7 1.7m10.5 0c0 1-.8 1.7-1.7 1.7-1 0-1.7-.8-1.7-1.7 0-1 .8-1.7 1.7-1.7.9-.1 1.7.7 1.7 1.7m10.5 0c0 1-.8 1.7-1.7 1.7-1 0-1.7-.8-1.7-1.7 0-1 .8-1.7 1.7-1.7.9-.1 1.7.7 1.7 1.7m10.4 0c0 1-.8 1.7-1.7 1.7-1 0-1.7-.8-1.7-1.7 0-1 .8-1.7 1.7-1.7.9-.1 1.7.7 1.7 1.7m10.5 0c0 1-.8 1.7-1.7 1.7-.9 0-1.7-.8-1.7-1.7 0-1 .8-1.7 1.7-1.7.9 0 1.7.7 1.7 1.7m10.4 0c0 1-.8 1.7-1.7 1.7-.9 0-1.7-.8-1.7-1.7 0-1 .8-1.7 1.7-1.7.9 0 1.7.7 1.7 1.7m11.2-26.2c0 1-.8 1.7-1.7 1.7-1 0-1.7-.8-1.7-1.7 0-1 .8-1.7 1.7-1.7.9-.1 1.7.7 1.7 1.7m10.5 0c0 1-.8 1.7-1.7 1.7-1 0-1.7-.8-1.7-1.7 0-1 .8-1.7 1.7-1.7.9-.1 1.7.7 1.7 1.7m10.4 0c0 1-.8 1.7-1.7 1.7-1 0-1.7-.8-1.7-1.7 0-1 .8-1.7 1.7-1.7 1-.1 1.7.7 1.7 1.7m10.5 0c0 1-.8 1.7-1.7 1.7-1 0-1.7-.8-1.7-1.7 0-1 .8-1.7 1.7-1.7.9-.1 1.7.7 1.7 1.7m10.5 0c0 1-.8 1.7-1.7 1.7-.9 0-1.7-.8-1.7-1.7 0-1 .8-1.7 1.7-1.7.9 0 1.7.7 1.7 1.7m10.4 0c0 1-.8 1.7-1.7 1.7-1 0-1.7-.8-1.7-1.7 0-1 .8-1.7 1.7-1.7.9-.1 1.7.7 1.7 1.7m10.5 0c0 1-.8 1.7-1.7 1.7-1 0-1.7-.8-1.7-1.7 0-1 .8-1.7 1.7-1.7.9-.1 1.7.7 1.7 1.7m10.4 0c0 1-.8 1.7-1.7 1.7-1 0-1.7-.8-1.7-1.7 0-1 .8-1.7 1.7-1.7.9-.1 1.7.7 1.7 1.7m10.5 0c0 1-.8 1.7-1.7 1.7-1 0-1.7-.8-1.7-1.7 0-1 .8-1.7 1.7-1.7.9-.1 1.7.7 1.7 1.7m10.4 0c0 1-.8 1.7-1.7 1.7-.9 0-1.7-.8-1.7-1.7 0-1 .8-1.7 1.7-1.7.9 0 1.7.7 1.7 1.7m10.5 0c0 1-.8 1.7-1.7 1.7-1 0-1.7-.8-1.7-1.7 0-1 .8-1.7 1.7-1.7.9-.1 1.7.7 1.7 1.7m10.5 0c0 1-.8 1.7-1.7 1.7-.9 0-1.7-.8-1.7-1.7 0-1 .8-1.7 1.7-1.7.9 0 1.7.7 1.7 1.7M391.3 9.7c0 1-.8 1.7-1.7 1.7-1 0-1.7-.8-1.7-1.7 0-1 .8-1.7 1.7-1.7 1 0 1.7.8 1.7 1.7m10.5 0c0 1-.8 1.7-1.7 1.7-1 0-1.8-.8-1.8-1.7 0-1 .8-1.7 1.8-1.7.9 0 1.7.8 1.7 1.7m10.5 0c0 1-.8 1.7-1.7 1.7-.9 0-1.7-.8-1.7-1.7 0-1 .8-1.7 1.7-1.7.9 0 1.7.8 1.7 1.7m10.4 0c0 1-.8 1.7-1.7 1.7-1 0-1.7-.8-1.7-1.7 0-1 .8-1.7 1.7-1.7.9 0 1.7.8 1.7 1.7m10.5 0c0 1-.8 1.7-1.7 1.7-1 0-1.7-.8-1.7-1.7 0-1 .8-1.7 1.7-1.7.9 0 1.7.8 1.7 1.7m10.4 0c0 1-.8 1.7-1.7 1.7-1 0-1.7-.8-1.7-1.7 0-1 .8-1.7 1.7-1.7 1 0 1.7.8 1.7 1.7m10.5 0c0 1-.8 1.7-1.7 1.7-1 0-1.7-.8-1.7-1.7 0-1 .8-1.7 1.7-1.7.9 0 1.7.8 1.7 1.7m10.5 0c0 1-.8 1.7-1.7 1.7-1 0-1.7-.8-1.7-1.7 0-1 .8-1.7 1.7-1.7.9 0 1.7.8 1.7 1.7m10.4 0c0 1-.8 1.7-1.7 1.7-1 0-1.7-.8-1.7-1.7 0-1 .8-1.7 1.7-1.7.9 0 1.7.8 1.7 1.7m10.5 0c0 1-.8 1.7-1.7 1.7-.9 0-1.7-.8-1.7-1.7 0-1 .8-1.7 1.7-1.7.9 0 1.7.8 1.7 1.7m10.4 0c0 1-.8 1.7-1.7 1.7-1 0-1.7-.8-1.7-1.7 0-1 .8-1.7 1.7-1.7.9 0 1.7.8 1.7 1.7m10.5 0c0 1-.8 1.7-1.7 1.7-1 0-1.8-.8-1.8-1.7 0-1 .8-1.7 1.8-1.7.9 0 1.7.8 1.7 1.7m-120.3 6.6c0 1-.8 1.7-1.7 1.7-1 0-1.7-.8-1.7-1.7 0-.9.8-1.7 1.7-1.7.9-.1 1.7.7 1.7 1.7m10.5 0c0 1-.8 1.7-1.7 1.7-1 0-1.7-.8-1.7-1.7 0-.9.8-1.7 1.7-1.7.9-.1 1.7.7 1.7 1.7m10.4 0c0 1-.8 1.7-1.7 1.7-1 0-1.7-.8-1.7-1.7 0-.9.8-1.7 1.7-1.7 1-.1 1.7.7 1.7 1.7m10.5 0c0 1-.8 1.7-1.7 1.7-1 0-1.7-.8-1.7-1.7 0-.9.8-1.7 1.7-1.7.9-.1 1.7.7 1.7 1.7m10.5 0c0 1-.8 1.7-1.7 1.7-.9 0-1.7-.8-1.7-1.7 0-.9.8-1.7 1.7-1.7.9 0 1.7.7 1.7 1.7m10.4 0c0 1-.8 1.7-1.7 1.7-1 0-1.7-.8-1.7-1.7 0-.9.8-1.7 1.7-1.7.9-.1 1.7.7 1.7 1.7m10.5 0c0 1-.8 1.7-1.7 1.7-1 0-1.7-.8-1.7-1.7 0-.9.8-1.7 1.7-1.7.9-.1 1.7.7 1.7 1.7m10.4 0c0 1-.8 1.7-1.7 1.7-1 0-1.7-.8-1.7-1.7 0-.9.8-1.7 1.7-1.7.9-.1 1.7.7 1.7 1.7m10.5 0c0 1-.8 1.7-1.7 1.7-1 0-1.7-.8-1.7-1.7 0-.9.8-1.7 1.7-1.7.9-.1 1.7.7 1.7 1.7m10.4 0c0 1-.8 1.7-1.7 1.7-.9 0-1.7-.8-1.7-1.7 0-.9.8-1.7 1.7-1.7.9 0 1.7.7 1.7 1.7m10.5 0c0 1-.8 1.7-1.7 1.7-1 0-1.7-.8-1.7-1.7 0-.9.8-1.7 1.7-1.7.9-.1 1.7.7 1.7 1.7m10.5 0c0 1-.8 1.7-1.7 1.7-.9 0-1.7-.8-1.7-1.7 0-.9.8-1.7 1.7-1.7.9 0 1.7.7 1.7 1.7m-109.9 6.5c0 1-.8 1.7-1.7 1.7-1 0-1.7-.8-1.7-1.7 0-1 .8-1.7 1.7-1.7 1 0 1.7.8 1.7 1.7m10.5 0c0 1-.8 1.7-1.7 1.7-1 0-1.8-.8-1.8-1.7 0-1 .8-1.7 1.8-1.7.9 0 1.7.8 1.7 1.7m10.5 0c0 1-.8 1.7-1.7 1.7-.9 0-1.7-.8-1.7-1.7 0-1 .8-1.7 1.7-1.7.9 0 1.7.8 1.7 1.7m10.4 0c0 1-.8 1.7-1.7 1.7-1 0-1.7-.8-1.7-1.7 0-1 .8-1.7 1.7-1.7.9 0 1.7.8 1.7 1.7m10.5 0c0 1-.8 1.7-1.7 1.7-1 0-1.7-.8-1.7-1.7 0-1 .8-1.7 1.7-1.7.9 0 1.7.8 1.7 1.7m10.4 0c0 1-.8 1.7-1.7 1.7-1 0-1.7-.8-1.7-1.7 0-1 .8-1.7 1.7-1.7 1 0 1.7.8 1.7 1.7m10.5 0c0 1-.8 1.7-1.7 1.7-1 0-1.7-.8-1.7-1.7 0-1 .8-1.7 1.7-1.7.9 0 1.7.8 1.7 1.7m10.5 0c0 1-.8 1.7-1.7 1.7-1 0-1.7-.8-1.7-1.7 0-1 .8-1.7 1.7-1.7.9 0 1.7.8 1.7 1.7m10.4 0c0 1-.8 1.7-1.7 1.7-1 0-1.7-.8-1.7-1.7 0-1 .8-1.7 1.7-1.7.9 0 1.7.8 1.7 1.7m10.5 0c0 1-.8 1.7-1.7 1.7-.9 0-1.7-.8-1.7-1.7 0-1 .8-1.7 1.7-1.7.9 0 1.7.8 1.7 1.7m10.4 0c0 1-.8 1.7-1.7 1.7-1 0-1.7-.8-1.7-1.7 0-1 .8-1.7 1.7-1.7.9 0 1.7.8 1.7 1.7m10.5 0c0 1-.8 1.7-1.7 1.7-1 0-1.8-.8-1.8-1.7 0-1 .8-1.7 1.8-1.7.9 0 1.7.8 1.7 1.7m-120.3 6.6c0 1-.8 1.7-1.7 1.7-1 0-1.7-.8-1.7-1.7 0-1 .8-1.7 1.7-1.7.9-.1 1.7.7 1.7 1.7m10.5 0c0 1-.8 1.7-1.7 1.7-1 0-1.7-.8-1.7-1.7 0-1 .8-1.7 1.7-1.7.9-.1 1.7.7 1.7 1.7m10.4 0c0 1-.8 1.7-1.7 1.7-1 0-1.7-.8-1.7-1.7 0-1 .8-1.7 1.7-1.7 1-.1 1.7.7 1.7 1.7m10.5 0c0 1-.8 1.7-1.7 1.7-1 0-1.7-.8-1.7-1.7 0-1 .8-1.7 1.7-1.7.9-.1 1.7.7 1.7 1.7m10.5 0c0 1-.8 1.7-1.7 1.7-.9 0-1.7-.8-1.7-1.7 0-1 .8-1.7 1.7-1.7.9 0 1.7.7 1.7 1.7m10.4 0c0 1-.8 1.7-1.7 1.7-1 0-1.7-.8-1.7-1.7 0-1 .8-1.7 1.7-1.7.9-.1 1.7.7 1.7 1.7m10.5 0c0 1-.8 1.7-1.7 1.7-1 0-1.7-.8-1.7-1.7 0-1 .8-1.7 1.7-1.7.9-.1 1.7.7 1.7 1.7m10.4 0c0 1-.8 1.7-1.7 1.7-1 0-1.7-.8-1.7-1.7 0-1 .8-1.7 1.7-1.7.9-.1 1.7.7 1.7 1.7m10.5 0c0 1-.8 1.7-1.7 1.7-1 0-1.7-.8-1.7-1.7 0-1 .8-1.7 1.7-1.7.9-.1 1.7.7 1.7 1.7m10.4 0c0 1-.8 1.7-1.7 1.7-.9 0-1.7-.8-1.7-1.7 0-1 .8-1.7 1.7-1.7.9 0 1.7.7 1.7 1.7m10.5 0c0 1-.8 1.7-1.7 1.7-1 0-1.7-.8-1.7-1.7 0-1 .8-1.7 1.7-1.7.9-.1 1.7.7 1.7 1.7m10.5 0c0 1-.8 1.7-1.7 1.7-.9 0-1.7-.8-1.7-1.7 0-1 .8-1.7 1.7-1.7.9 0 1.7.7 1.7 1.7m11.1-26.2c0 1-.8 1.7-1.7 1.7-1 0-1.7-.8-1.7-1.7 0-1 .8-1.7 1.7-1.7 1-.1 1.7.7 1.7 1.7m10.5 0c0 1-.8 1.7-1.7 1.7-1 0-1.7-.8-1.7-1.7 0-1 .8-1.7 1.7-1.7.9-.1 1.7.7 1.7 1.7m10.5 0c0 1-.8 1.7-1.7 1.7-.9 0-1.7-.8-1.7-1.7 0-1 .8-1.7 1.7-1.7.9 0 1.7.7 1.7 1.7m10.4 0c0 1-.8 1.7-1.7 1.7-1 0-1.7-.8-1.7-1.7 0-1 .8-1.7 1.7-1.7.9-.1 1.7.7 1.7 1.7m10.5 0c0 1-.8 1.7-1.7 1.7-1 0-1.7-.8-1.7-1.7 0-1 .8-1.7 1.7-1.7.9-.1 1.7.7 1.7 1.7m10.4 0c0 1-.8 1.7-1.7 1.7-1 0-1.7-.8-1.7-1.7 0-1 .8-1.7 1.7-1.7.9-.1 1.7.7 1.7 1.7m10.5 0c0 1-.8 1.7-1.7 1.7-1 0-1.7-.8-1.7-1.7 0-1 .8-1.7 1.7-1.7.9-.1 1.7.7 1.7 1.7m10.4 0c0 1-.8 1.7-1.7 1.7-1 0-1.7-.8-1.7-1.7 0-1 .8-1.7 1.7-1.7 1-.1 1.7.7 1.7 1.7m10.5 0c0 1-.8 1.7-1.7 1.7-1 0-1.7-.8-1.7-1.7 0-1 .8-1.7 1.7-1.7.9-.1 1.7.7 1.7 1.7m10.5 0c0 1-.8 1.7-1.7 1.7-1 0-1.8-.8-1.8-1.7 0-1 .8-1.7 1.8-1.7.9-.1 1.7.7 1.7 1.7m10.4 0c0 1-.8 1.7-1.7 1.7-1 0-1.7-.8-1.7-1.7 0-1 .8-1.7 1.7-1.7.9-.1 1.7.7 1.7 1.7m10.5 0c0 1-.8 1.7-1.7 1.7-1 0-1.7-.8-1.7-1.7 0-1 .8-1.7 1.7-1.7.9-.1 1.7.7 1.7 1.7M517.6 9.7c0 1-.8 1.7-1.7 1.7-1 0-1.7-.8-1.7-1.7 0-1 .8-1.7 1.7-1.7.9 0 1.7.8 1.7 1.7m10.4 0c0 1-.8 1.7-1.7 1.7-.9 0-1.7-.8-1.7-1.7 0-1 .8-1.7 1.7-1.7.9 0 1.7.8 1.7 1.7m10.5 0c0 1-.8 1.7-1.7 1.7-1 0-1.7-.8-1.7-1.7 0-1 .8-1.7 1.7-1.7.9 0 1.7.8 1.7 1.7m10.4 0c0 1-.8 1.7-1.7 1.7-1 0-1.7-.8-1.7-1.7 0-1 .8-1.7 1.7-1.7 1 0 1.7.8 1.7 1.7m10.5 0c0 1-.8 1.7-1.8 1.7s-1.7-.8-1.7-1.7c0-1 .8-1.7 1.7-1.7 1 0 1.8.8 1.8 1.7m10.5 0c0 1-.8 1.7-1.7 1.7-.9 0-1.7-.8-1.7-1.7 0-1 .8-1.7 1.7-1.7.9 0 1.7.8 1.7 1.7m10.4 0c0 1-.8 1.7-1.7 1.7-1 0-1.7-.8-1.7-1.7 0-1 .8-1.7 1.7-1.7.9 0 1.7.8 1.7 1.7m10.5 0c0 1-.8 1.7-1.7 1.7-1 0-1.7-.8-1.7-1.7 0-1 .8-1.7 1.7-1.7.9 0 1.7.8 1.7 1.7m10.4 0c0 1-.8 1.7-1.7 1.7-1 0-1.7-.8-1.7-1.7 0-1 .8-1.7 1.7-1.7.9 0 1.7.8 1.7 1.7m10.5 0c0 1-.8 1.7-1.7 1.7-1 0-1.7-.8-1.7-1.7 0-1 .8-1.7 1.7-1.7.9 0 1.7.8 1.7 1.7m10.4 0c0 1-.8 1.7-1.7 1.7-1 0-1.7-.8-1.7-1.7 0-1 .8-1.7 1.7-1.7 1 0 1.7.8 1.7 1.7m10.5 0c0 1-.8 1.7-1.7 1.7-.9 0-1.7-.8-1.7-1.7 0-1 .8-1.7 1.7-1.7.9 0 1.7.8 1.7 1.7m-120.3 6.6c0 1-.8 1.7-1.7 1.7-1 0-1.7-.8-1.7-1.7 0-.9.8-1.7 1.7-1.7 1-.1 1.7.7 1.7 1.7m10.5 0c0 1-.8 1.7-1.7 1.7-1 0-1.7-.8-1.7-1.7 0-.9.8-1.7 1.7-1.7.9-.1 1.7.7 1.7 1.7m10.5 0c0 1-.8 1.7-1.7 1.7-.9 0-1.7-.8-1.7-1.7 0-.9.8-1.7 1.7-1.7.9 0 1.7.7 1.7 1.7m10.4 0c0 1-.8 1.7-1.7 1.7-1 0-1.7-.8-1.7-1.7 0-.9.8-1.7 1.7-1.7.9-.1 1.7.7 1.7 1.7m10.5 0c0 1-.8 1.7-1.7 1.7-1 0-1.7-.8-1.7-1.7 0-.9.8-1.7 1.7-1.7.9-.1 1.7.7 1.7 1.7m10.4 0c0 1-.8 1.7-1.7 1.7-1 0-1.7-.8-1.7-1.7 0-.9.8-1.7 1.7-1.7.9-.1 1.7.7 1.7 1.7m10.5 0c0 1-.8 1.7-1.7 1.7-1 0-1.7-.8-1.7-1.7 0-.9.8-1.7 1.7-1.7.9-.1 1.7.7 1.7 1.7m10.4 0c0 1-.8 1.7-1.7 1.7-1 0-1.7-.8-1.7-1.7 0-.9.8-1.7 1.7-1.7 1-.1 1.7.7 1.7 1.7m10.5 0c0 1-.8 1.7-1.7 1.7-1 0-1.7-.8-1.7-1.7 0-.9.8-1.7 1.7-1.7.9-.1 1.7.7 1.7 1.7m10.5 0c0 1-.8 1.7-1.7 1.7-1 0-1.8-.8-1.8-1.7 0-.9.8-1.7 1.8-1.7.9-.1 1.7.7 1.7 1.7m10.4 0c0 1-.8 1.7-1.7 1.7-1 0-1.7-.8-1.7-1.7 0-.9.8-1.7 1.7-1.7.9-.1 1.7.7 1.7 1.7m10.5 0c0 1-.8 1.7-1.7 1.7-1 0-1.7-.8-1.7-1.7 0-.9.8-1.7 1.7-1.7.9-.1 1.7.7 1.7 1.7m-109.8 6.5c0 1-.8 1.7-1.7 1.7-1 0-1.7-.8-1.7-1.7 0-1 .8-1.7 1.7-1.7.9 0 1.7.8 1.7 1.7m10.4 0c0 1-.8 1.7-1.7 1.7-.9 0-1.7-.8-1.7-1.7 0-1 .8-1.7 1.7-1.7.9 0 1.7.8 1.7 1.7m10.5 0c0 1-.8 1.7-1.7 1.7-1 0-1.7-.8-1.7-1.7 0-1 .8-1.7 1.7-1.7.9 0 1.7.8 1.7 1.7m10.4 0c0 1-.8 1.7-1.7 1.7-1 0-1.7-.8-1.7-1.7 0-1 .8-1.7 1.7-1.7 1 0 1.7.8 1.7 1.7m10.5 0c0 1-.8 1.7-1.8 1.7s-1.7-.8-1.7-1.7c0-1 .8-1.7 1.7-1.7 1 0 1.8.8 1.8 1.7m10.5 0c0 1-.8 1.7-1.7 1.7-.9 0-1.7-.8-1.7-1.7 0-1 .8-1.7 1.7-1.7.9 0 1.7.8 1.7 1.7m10.4 0c0 1-.8 1.7-1.7 1.7-1 0-1.7-.8-1.7-1.7 0-1 .8-1.7 1.7-1.7.9 0 1.7.8 1.7 1.7m10.5 0c0 1-.8 1.7-1.7 1.7-1 0-1.7-.8-1.7-1.7 0-1 .8-1.7 1.7-1.7.9 0 1.7.8 1.7 1.7m10.4 0c0 1-.8 1.7-1.7 1.7-1 0-1.7-.8-1.7-1.7 0-1 .8-1.7 1.7-1.7.9 0 1.7.8 1.7 1.7m10.5 0c0 1-.8 1.7-1.7 1.7-1 0-1.7-.8-1.7-1.7 0-1 .8-1.7 1.7-1.7.9 0 1.7.8 1.7 1.7m10.4 0c0 1-.8 1.7-1.7 1.7-1 0-1.7-.8-1.7-1.7 0-1 .8-1.7 1.7-1.7 1 0 1.7.8 1.7 1.7m10.5 0c0 1-.8 1.7-1.7 1.7-.9 0-1.7-.8-1.7-1.7 0-1 .8-1.7 1.7-1.7.9 0 1.7.8 1.7 1.7m-120.3 6.6c0 1-.8 1.7-1.7 1.7-1 0-1.7-.8-1.7-1.7 0-1 .8-1.7 1.7-1.7 1-.1 1.7.7 1.7 1.7m10.5 0c0 1-.8 1.7-1.7 1.7-1 0-1.7-.8-1.7-1.7 0-1 .8-1.7 1.7-1.7.9-.1 1.7.7 1.7 1.7m10.5 0c0 1-.8 1.7-1.7 1.7-.9 0-1.7-.8-1.7-1.7 0-1 .8-1.7 1.7-1.7.9 0 1.7.7 1.7 1.7m10.4 0c0 1-.8 1.7-1.7 1.7-1 0-1.7-.8-1.7-1.7 0-1 .8-1.7 1.7-1.7.9-.1 1.7.7 1.7 1.7m10.5 0c0 1-.8 1.7-1.7 1.7-1 0-1.7-.8-1.7-1.7 0-1 .8-1.7 1.7-1.7.9-.1 1.7.7 1.7 1.7m10.4 0c0 1-.8 1.7-1.7 1.7-1 0-1.7-.8-1.7-1.7 0-1 .8-1.7 1.7-1.7.9-.1 1.7.7 1.7 1.7m10.5 0c0 1-.8 1.7-1.7 1.7-1 0-1.7-.8-1.7-1.7 0-1 .8-1.7 1.7-1.7.9-.1 1.7.7 1.7 1.7m10.4 0c0 1-.8 1.7-1.7 1.7-1 0-1.7-.8-1.7-1.7 0-1 .8-1.7 1.7-1.7 1-.1 1.7.7 1.7 1.7m10.5 0c0 1-.8 1.7-1.7 1.7-1 0-1.7-.8-1.7-1.7 0-1 .8-1.7 1.7-1.7.9-.1 1.7.7 1.7 1.7m10.5 0c0 1-.8 1.7-1.7 1.7-1 0-1.8-.8-1.8-1.7 0-1 .8-1.7 1.8-1.7.9-.1 1.7.7 1.7 1.7m10.4 0c0 1-.8 1.7-1.7 1.7-1 0-1.7-.8-1.7-1.7 0-1 .8-1.7 1.7-1.7.9-.1 1.7.7 1.7 1.7m10.5 0c0 1-.8 1.7-1.7 1.7-1 0-1.7-.8-1.7-1.7 0-1 .8-1.7 1.7-1.7.9-.1 1.7.7 1.7 1.7m11.2-26.2c0 1-.8 1.7-1.7 1.7-1 0-1.8-.8-1.8-1.7 0-1 .8-1.7 1.8-1.7.9-.1 1.7.7 1.7 1.7m10.4 0c0 1-.8 1.7-1.7 1.7-1 0-1.7-.8-1.7-1.7 0-1 .8-1.7 1.7-1.7.9-.1 1.7.7 1.7 1.7m10.5 0c0 1-.8 1.7-1.7 1.7-1 0-1.7-.8-1.7-1.7 0-1 .8-1.7 1.7-1.7.9-.1 1.7.7 1.7 1.7m10.4 0c0 1-.8 1.7-1.7 1.7-1 0-1.7-.8-1.7-1.7 0-1 .8-1.7 1.7-1.7.9-.1 1.7.7 1.7 1.7m10.5 0c0 1-.8 1.7-1.7 1.7-.9 0-1.7-.8-1.7-1.7 0-1 .8-1.7 1.7-1.7.9 0 1.7.7 1.7 1.7m10.4 0c0 1-.8 1.7-1.7 1.7-1 0-1.7-.8-1.7-1.7 0-1 .8-1.7 1.7-1.7 1-.1 1.7.7 1.7 1.7m10.5 0c0 1-.8 1.7-1.7 1.7-1 0-1.7-.8-1.7-1.7 0-1 .8-1.7 1.7-1.7.9-.1 1.7.7 1.7 1.7m10.5 0c0 1-.8 1.7-1.7 1.7-1 0-1.7-.8-1.7-1.7 0-1 .8-1.7 1.7-1.7.9-.1 1.7.7 1.7 1.7m10.4 0c0 1-.8 1.7-1.7 1.7-1 0-1.7-.8-1.7-1.7 0-1 .8-1.7 1.7-1.7.9-.1 1.7.7 1.7 1.7m10.5 0c0 1-.8 1.7-1.7 1.7-1 0-1.7-.8-1.7-1.7 0-1 .8-1.7 1.7-1.7.9-.1 1.7.7 1.7 1.7m10.4 0c0 1-.8 1.7-1.7 1.7-1 0-1.8-.8-1.8-1.7 0-1 .8-1.7 1.8-1.7 1-.1 1.7.7 1.7 1.7m10.5 0c0 1-.8 1.7-1.7 1.7-1 0-1.7-.8-1.7-1.7 0-1 .8-1.7 1.7-1.7.9-.1 1.7.7 1.7 1.7M643.8 9.7c0 1-.8 1.7-1.7 1.7-1 0-1.7-.8-1.7-1.7 0-1 .8-1.7 1.7-1.7.9 0 1.7.8 1.7 1.7m10.4 0c0 1-.8 1.7-1.7 1.7-1 0-1.7-.8-1.7-1.7 0-1 .8-1.7 1.7-1.7 1 0 1.7.8 1.7 1.7m10.5 0c0 1-.8 1.7-1.7 1.7-1 0-1.7-.8-1.7-1.7 0-1 .8-1.7 1.7-1.7.9 0 1.7.8 1.7 1.7m10.5 0c0 1-.8 1.7-1.7 1.7-1 0-1.7-.8-1.7-1.7 0-1 .8-1.7 1.7-1.7.9 0 1.7.8 1.7 1.7m10.4 0c0 1-.8 1.7-1.7 1.7-1 0-1.7-.8-1.7-1.7 0-1 .8-1.7 1.7-1.7.9 0 1.7.8 1.7 1.7m10.5 0c0 1-.8 1.7-1.7 1.7-1 0-1.7-.8-1.7-1.7 0-1 .8-1.7 1.7-1.7.9 0 1.7.8 1.7 1.7m10.4 0c0 1-.8 1.7-1.7 1.7-1 0-1.7-.8-1.7-1.7 0-1 .8-1.7 1.7-1.7 1 0 1.7.8 1.7 1.7m10.5 0c0 1-.8 1.7-1.7 1.7-1 0-1.7-.8-1.7-1.7 0-1 .8-1.7 1.7-1.7.9 0 1.7.8 1.7 1.7m10.4 0c0 1-.8 1.7-1.7 1.7-1 0-1.7-.8-1.7-1.7 0-1 .8-1.7 1.7-1.7 1 0 1.7.8 1.7 1.7m10.5 0c0 1-.8 1.7-1.7 1.7-.9 0-1.7-.8-1.7-1.7 0-1 .8-1.7 1.7-1.7.9 0 1.7.8 1.7 1.7m10.5 0c0 1-.8 1.7-1.7 1.7-1 0-1.7-.8-1.7-1.7 0-1 .8-1.7 1.7-1.7.9 0 1.7.8 1.7 1.7m10.4 0c0 1-.8 1.7-1.7 1.7-.9 0-1.7-.8-1.7-1.7 0-1 .8-1.7 1.7-1.7.9 0 1.7.8 1.7 1.7m-120.2 6.6c0 1-.8 1.7-1.7 1.7-1 0-1.8-.8-1.8-1.7 0-.9.8-1.7 1.8-1.7.9-.1 1.7.7 1.7 1.7m10.4 0c0 1-.8 1.7-1.7 1.7-1 0-1.7-.8-1.7-1.7 0-.9.8-1.7 1.7-1.7.9-.1 1.7.7 1.7 1.7m10.5 0c0 1-.8 1.7-1.7 1.7-1 0-1.7-.8-1.7-1.7 0-.9.8-1.7 1.7-1.7.9-.1 1.7.7 1.7 1.7m10.4 0c0 1-.8 1.7-1.7 1.7-1 0-1.7-.8-1.7-1.7 0-.9.8-1.7 1.7-1.7.9-.1 1.7.7 1.7 1.7m10.5 0c0 1-.8 1.7-1.7 1.7-.9 0-1.7-.8-1.7-1.7 0-.9.8-1.7 1.7-1.7.9 0 1.7.7 1.7 1.7m10.4 0c0 1-.8 1.7-1.7 1.7-1 0-1.7-.8-1.7-1.7 0-.9.8-1.7 1.7-1.7 1-.1 1.7.7 1.7 1.7m10.5 0c0 1-.8 1.7-1.7 1.7-1 0-1.7-.8-1.7-1.7 0-.9.8-1.7 1.7-1.7.9-.1 1.7.7 1.7 1.7m10.5 0c0 1-.8 1.7-1.7 1.7-1 0-1.7-.8-1.7-1.7 0-.9.8-1.7 1.7-1.7.9-.1 1.7.7 1.7 1.7m10.4 0c0 1-.8 1.7-1.7 1.7-1 0-1.7-.8-1.7-1.7 0-.9.8-1.7 1.7-1.7.9-.1 1.7.7 1.7 1.7m10.5 0c0 1-.8 1.7-1.7 1.7-1 0-1.7-.8-1.7-1.7 0-.9.8-1.7 1.7-1.7.9-.1 1.7.7 1.7 1.7m10.4 0c0 1-.8 1.7-1.7 1.7-1 0-1.8-.8-1.8-1.7 0-.9.8-1.7 1.8-1.7 1-.1 1.7.7 1.7 1.7m10.5 0c0 1-.8 1.7-1.7 1.7-1 0-1.7-.8-1.7-1.7 0-.9.8-1.7 1.7-1.7.9-.1 1.7.7 1.7 1.7m-109.8 6.5c0 1-.8 1.7-1.7 1.7-1 0-1.7-.8-1.7-1.7 0-1 .8-1.7 1.7-1.7.9 0 1.7.8 1.7 1.7m10.4 0c0 1-.8 1.7-1.7 1.7-1 0-1.7-.8-1.7-1.7 0-1 .8-1.7 1.7-1.7 1 0 1.7.8 1.7 1.7m10.5 0c0 1-.8 1.7-1.7 1.7-1 0-1.7-.8-1.7-1.7 0-1 .8-1.7 1.7-1.7.9 0 1.7.8 1.7 1.7m10.5 0c0 1-.8 1.7-1.7 1.7-1 0-1.7-.8-1.7-1.7 0-1 .8-1.7 1.7-1.7.9 0 1.7.8 1.7 1.7m10.4 0c0 1-.8 1.7-1.7 1.7-1 0-1.7-.8-1.7-1.7 0-1 .8-1.7 1.7-1.7.9 0 1.7.8 1.7 1.7m10.5 0c0 1-.8 1.7-1.7 1.7-1 0-1.7-.8-1.7-1.7 0-1 .8-1.7 1.7-1.7.9 0 1.7.8 1.7 1.7m10.4 0c0 1-.8 1.7-1.7 1.7-1 0-1.7-.8-1.7-1.7 0-1 .8-1.7 1.7-1.7 1 0 1.7.8 1.7 1.7m10.5 0c0 1-.8 1.7-1.7 1.7-1 0-1.7-.8-1.7-1.7 0-1 .8-1.7 1.7-1.7.9 0 1.7.8 1.7 1.7m10.4 0c0 1-.8 1.7-1.7 1.7-1 0-1.7-.8-1.7-1.7 0-1 .8-1.7 1.7-1.7 1 0 1.7.8 1.7 1.7m10.5 0c0 1-.8 1.7-1.7 1.7-.9 0-1.7-.8-1.7-1.7 0-1 .8-1.7 1.7-1.7.9 0 1.7.8 1.7 1.7m10.5 0c0 1-.8 1.7-1.7 1.7-1 0-1.7-.8-1.7-1.7 0-1 .8-1.7 1.7-1.7.9 0 1.7.8 1.7 1.7m10.4 0c0 1-.8 1.7-1.7 1.7-.9 0-1.7-.8-1.7-1.7 0-1 .8-1.7 1.7-1.7.9 0 1.7.8 1.7 1.7m-120.2 6.6c0 1-.8 1.7-1.7 1.7-1 0-1.8-.8-1.8-1.7 0-1 .8-1.7 1.8-1.7.9-.1 1.7.7 1.7 1.7m10.4 0c0 1-.8 1.7-1.7 1.7-1 0-1.7-.8-1.7-1.7 0-1 .8-1.7 1.7-1.7.9-.1 1.7.7 1.7 1.7m10.5 0c0 1-.8 1.7-1.7 1.7-1 0-1.7-.8-1.7-1.7 0-1 .8-1.7 1.7-1.7.9-.1 1.7.7 1.7 1.7m10.4 0c0 1-.8 1.7-1.7 1.7-1 0-1.7-.8-1.7-1.7 0-1 .8-1.7 1.7-1.7.9-.1 1.7.7 1.7 1.7m10.5 0c0 1-.8 1.7-1.7 1.7-.9 0-1.7-.8-1.7-1.7 0-1 .8-1.7 1.7-1.7.9 0 1.7.7 1.7 1.7m10.4 0c0 1-.8 1.7-1.7 1.7-1 0-1.7-.8-1.7-1.7 0-1 .8-1.7 1.7-1.7 1-.1 1.7.7 1.7 1.7m10.5 0c0 1-.8 1.7-1.7 1.7-1 0-1.7-.8-1.7-1.7 0-1 .8-1.7 1.7-1.7.9-.1 1.7.7 1.7 1.7m10.5 0c0 1-.8 1.7-1.7 1.7-1 0-1.7-.8-1.7-1.7 0-1 .8-1.7 1.7-1.7.9-.1 1.7.7 1.7 1.7m10.4 0c0 1-.8 1.7-1.7 1.7-1 0-1.7-.8-1.7-1.7 0-1 .8-1.7 1.7-1.7.9-.1 1.7.7 1.7 1.7m10.5 0c0 1-.8 1.7-1.7 1.7-1 0-1.7-.8-1.7-1.7 0-1 .8-1.7 1.7-1.7.9-.1 1.7.7 1.7 1.7m10.4 0c0 1-.8 1.7-1.7 1.7-1 0-1.8-.8-1.8-1.7 0-1 .8-1.7 1.8-1.7 1-.1 1.7.7 1.7 1.7m10.5 0c0 1-.8 1.7-1.7 1.7-1 0-1.7-.8-1.7-1.7 0-1 .8-1.7 1.7-1.7.9-.1 1.7.7 1.7 1.7m10.2-26.2c0 1-.8 1.7-1.7 1.7-1 0-1.7-.8-1.7-1.7 0-1 .8-1.7 1.7-1.7.9-.1 1.7.7 1.7 1.7m10.5 0c0 1-.8 1.7-1.7 1.7-1 0-1.7-.8-1.7-1.7 0-1 .8-1.7 1.7-1.7.9-.1 1.7.7 1.7 1.7m10.4 0c0 1-.8 1.7-1.8 1.7s-1.7-.8-1.7-1.7c0-1 .8-1.7 1.7-1.7 1-.1 1.8.7 1.8 1.7m10.5 0c0 1-.8 1.7-1.7 1.7-1 0-1.7-.8-1.7-1.7 0-1 .8-1.7 1.7-1.7.9-.1 1.7.7 1.7 1.7m10.4 0c0 1-.8 1.7-1.7 1.7-1 0-1.7-.8-1.7-1.7 0-1 .8-1.7 1.7-1.7 1-.1 1.7.7 1.7 1.7m10.5 0c0 1-.8 1.7-1.7 1.7-1 0-1.7-.8-1.7-1.7 0-1 .8-1.7 1.7-1.7.9-.1 1.7.7 1.7 1.7m10.4 0c0 1-.8 1.7-1.7 1.7-.9 0-1.7-.8-1.7-1.7 0-1 .8-1.7 1.7-1.7.9 0 1.7.7 1.7 1.7m10.5 0c0 1-.8 1.7-1.7 1.7-1 0-1.7-.8-1.7-1.7 0-1 .8-1.7 1.7-1.7.9-.1 1.7.7 1.7 1.7m10.5 0c0 1-.8 1.7-1.7 1.7-.9 0-1.8-.8-1.8-1.7 0-1 .8-1.7 1.7-1.7.9 0 1.8.7 1.8 1.7m10.4 0c0 1-.8 1.7-1.7 1.7-.9 0-1.7-.8-1.7-1.7 0-1 .8-1.7 1.7-1.7.9 0 1.7.7 1.7 1.7m10.5 0c0 1-.8 1.7-1.7 1.7-.9 0-1.7-.8-1.7-1.7 0-1 .8-1.7 1.7-1.7.9 0 1.7.7 1.7 1.7m10.4 0c0 1-.8 1.7-1.7 1.7-.9 0-1.7-.8-1.7-1.7 0-1 .8-1.7 1.7-1.7.9 0 1.7.7 1.7 1.7M769 9.7c0 1-.8 1.7-1.7 1.7-1 0-1.7-.8-1.7-1.7 0-1 .8-1.7 1.7-1.7.9 0 1.7.8 1.7 1.7m10.5 0c0 1-.8 1.7-1.7 1.7-1 0-1.7-.8-1.7-1.7 0-1 .8-1.7 1.7-1.7.9 0 1.7.8 1.7 1.7m10.4 0c0 1-.8 1.7-1.7 1.7-.9 0-1.7-.8-1.7-1.7 0-1 .8-1.7 1.7-1.7.9 0 1.7.8 1.7 1.7m10.5 0c0 1-.8 1.7-1.7 1.7-1 0-1.7-.8-1.7-1.7 0-1 .8-1.7 1.7-1.7.9 0 1.7.8 1.7 1.7m10.5 0c0 1-.8 1.7-1.7 1.7-1 0-1.7-.8-1.7-1.7 0-1 .8-1.7 1.7-1.7.9 0 1.7.8 1.7 1.7m10.4 0c0 1-.8 1.7-1.7 1.7-1 0-1.7-.8-1.7-1.7 0-1 .8-1.7 1.7-1.7.9 0 1.7.8 1.7 1.7m10.5 0c0 1-.8 1.7-1.7 1.7-1 0-1.7-.8-1.7-1.7 0-1 .8-1.7 1.7-1.7.9 0 1.7.8 1.7 1.7m10.4 0c0 1-.8 1.7-1.7 1.7-1 0-1.7-.8-1.7-1.7 0-1 .8-1.7 1.7-1.7 1 0 1.7.8 1.7 1.7m10.5 0c0 1-.8 1.7-1.7 1.7-1 0-1.7-.8-1.7-1.7 0-1 .8-1.7 1.7-1.7.9 0 1.7.8 1.7 1.7m10.4 0c0 1-.8 1.7-1.7 1.7-1 0-1.7-.8-1.7-1.7 0-1 .8-1.7 1.7-1.7 1 0 1.7.8 1.7 1.7m10.5 0c0 1-.8 1.7-1.7 1.7-.9 0-1.7-.8-1.7-1.7 0-1 .8-1.7 1.7-1.7.9 0 1.7.8 1.7 1.7m10.5 0c0 1-.8 1.7-1.7 1.7-1 0-1.7-.8-1.7-1.7 0-1 .8-1.7 1.7-1.7.9 0 1.7.8 1.7 1.7m-120.3 6.6c0 1-.8 1.7-1.7 1.7-1 0-1.7-.8-1.7-1.7 0-.9.8-1.7 1.7-1.7.9-.1 1.7.7 1.7 1.7m10.5 0c0 1-.8 1.7-1.7 1.7-1 0-1.7-.8-1.7-1.7 0-.9.8-1.7 1.7-1.7.9-.1 1.7.7 1.7 1.7m10.4 0c0 1-.8 1.7-1.8 1.7s-1.7-.8-1.7-1.7c0-.9.8-1.7 1.7-1.7 1-.1 1.8.7 1.8 1.7m10.5 0c0 1-.8 1.7-1.7 1.7-1 0-1.7-.8-1.7-1.7 0-.9.8-1.7 1.7-1.7.9-.1 1.7.7 1.7 1.7m10.4 0c0 1-.8 1.7-1.7 1.7-1 0-1.7-.8-1.7-1.7 0-.9.8-1.7 1.7-1.7 1-.1 1.7.7 1.7 1.7m10.5 0c0 1-.8 1.7-1.7 1.7-1 0-1.7-.8-1.7-1.7 0-.9.8-1.7 1.7-1.7.9-.1 1.7.7 1.7 1.7m10.4 0c0 1-.8 1.7-1.7 1.7-.9 0-1.7-.8-1.7-1.7 0-.9.8-1.7 1.7-1.7.9 0 1.7.7 1.7 1.7m10.5 0c0 1-.8 1.7-1.7 1.7-1 0-1.7-.8-1.7-1.7 0-.9.8-1.7 1.7-1.7.9-.1 1.7.7 1.7 1.7m10.5 0c0 1-.8 1.7-1.7 1.7-.9 0-1.7-.8-1.7-1.7 0-.9.8-1.7 1.7-1.7.9 0 1.7.7 1.7 1.7m10.4 0c0 1-.8 1.7-1.7 1.7-.9 0-1.7-.8-1.7-1.7 0-.9.8-1.7 1.7-1.7.9 0 1.7.7 1.7 1.7m10.5 0c0 1-.8 1.7-1.7 1.7-.9 0-1.7-.8-1.7-1.7 0-.9.8-1.7 1.7-1.7.9 0 1.7.7 1.7 1.7m10.4 0c0 1-.8 1.7-1.7 1.7-.9 0-1.7-.8-1.7-1.7 0-.9.8-1.7 1.7-1.7.9 0 1.7.7 1.7 1.7M769 22.8c0 1-.8 1.7-1.7 1.7-1 0-1.7-.8-1.7-1.7 0-1 .8-1.7 1.7-1.7.9 0 1.7.8 1.7 1.7m10.5 0c0 1-.8 1.7-1.7 1.7-1 0-1.7-.8-1.7-1.7 0-1 .8-1.7 1.7-1.7.9 0 1.7.8 1.7 1.7m10.4 0c0 1-.8 1.7-1.7 1.7-.9 0-1.7-.8-1.7-1.7 0-1 .8-1.7 1.7-1.7.9 0 1.7.8 1.7 1.7m10.5 0c0 1-.8 1.7-1.7 1.7-1 0-1.7-.8-1.7-1.7 0-1 .8-1.7 1.7-1.7.9 0 1.7.8 1.7 1.7m10.5 0c0 1-.8 1.7-1.7 1.7-1 0-1.7-.8-1.7-1.7 0-1 .8-1.7 1.7-1.7.9 0 1.7.8 1.7 1.7m10.4 0c0 1-.8 1.7-1.7 1.7-1 0-1.7-.8-1.7-1.7 0-1 .8-1.7 1.7-1.7.9 0 1.7.8 1.7 1.7m10.5 0c0 1-.8 1.7-1.7 1.7-1 0-1.7-.8-1.7-1.7 0-1 .8-1.7 1.7-1.7.9 0 1.7.8 1.7 1.7m10.4 0c0 1-.8 1.7-1.7 1.7-1 0-1.7-.8-1.7-1.7 0-1 .8-1.7 1.7-1.7 1 0 1.7.8 1.7 1.7m10.5 0c0 1-.8 1.7-1.7 1.7-1 0-1.7-.8-1.7-1.7 0-1 .8-1.7 1.7-1.7.9 0 1.7.8 1.7 1.7m10.4 0c0 1-.8 1.7-1.7 1.7-1 0-1.7-.8-1.7-1.7 0-1 .8-1.7 1.7-1.7 1 0 1.7.8 1.7 1.7m10.5 0c0 1-.8 1.7-1.7 1.7-.9 0-1.7-.8-1.7-1.7 0-1 .8-1.7 1.7-1.7.9 0 1.7.8 1.7 1.7m10.5 0c0 1-.8 1.7-1.7 1.7-1 0-1.7-.8-1.7-1.7 0-1 .8-1.7 1.7-1.7.9 0 1.7.8 1.7 1.7m-120.3 6.6c0 1-.8 1.7-1.7 1.7-1 0-1.7-.8-1.7-1.7 0-1 .8-1.7 1.7-1.7.9-.1 1.7.7 1.7 1.7m10.5 0c0 1-.8 1.7-1.7 1.7-1 0-1.7-.8-1.7-1.7 0-1 .8-1.7 1.7-1.7.9-.1 1.7.7 1.7 1.7m10.4 0c0 1-.8 1.7-1.8 1.7s-1.7-.8-1.7-1.7c0-1 .8-1.7 1.7-1.7 1-.1 1.8.7 1.8 1.7m10.5 0c0 1-.8 1.7-1.7 1.7-1 0-1.7-.8-1.7-1.7 0-1 .8-1.7 1.7-1.7.9-.1 1.7.7 1.7 1.7m10.4 0c0 1-.8 1.7-1.7 1.7-1 0-1.7-.8-1.7-1.7 0-1 .8-1.7 1.7-1.7 1-.1 1.7.7 1.7 1.7m10.5 0c0 1-.8 1.7-1.7 1.7-1 0-1.7-.8-1.7-1.7 0-1 .8-1.7 1.7-1.7.9-.1 1.7.7 1.7 1.7m10.4 0c0 1-.8 1.7-1.7 1.7-.9 0-1.7-.8-1.7-1.7 0-1 .8-1.7 1.7-1.7.9 0 1.7.7 1.7 1.7m10.5 0c0 1-.8 1.7-1.7 1.7-1 0-1.7-.8-1.7-1.7 0-1 .8-1.7 1.7-1.7.9-.1 1.7.7 1.7 1.7m10.5 0c0 1-.8 1.7-1.7 1.7-.9 0-1.7-.8-1.7-1.7 0-1 .8-1.7 1.7-1.7.9 0 1.7.7 1.7 1.7m10.4 0c0 1-.8 1.7-1.7 1.7-.9 0-1.7-.8-1.7-1.7 0-1 .8-1.7 1.7-1.7.9 0 1.7.7 1.7 1.7m10.5 0c0 1-.8 1.7-1.7 1.7-.9 0-1.7-.8-1.7-1.7 0-1 .8-1.7 1.7-1.7.9 0 1.7.7 1.7 1.7m10.4 0c0 1-.8 1.7-1.7 1.7-.9 0-1.7-.8-1.7-1.7 0-1 .8-1.7 1.7-1.7.9 0 1.7.7 1.7 1.7M890 3.2c0 1-.8 1.7-1.7 1.7-1 0-1.7-.8-1.7-1.7 0-1 .8-1.7 1.7-1.7.9-.1 1.7.7 1.7 1.7m10.5 0c0 1-.8 1.7-1.7 1.7-1 0-1.7-.8-1.7-1.7 0-1 .8-1.7 1.7-1.7.9-.1 1.7.7 1.7 1.7m10.4 0c0 1-.8 1.7-1.7 1.7-1 0-1.7-.8-1.7-1.7 0-1 .8-1.7 1.7-1.7 1-.1 1.7.7 1.7 1.7m10.5 0c0 1-.8 1.7-1.7 1.7-1 0-1.7-.8-1.7-1.7 0-1 .8-1.7 1.7-1.7.9-.1 1.7.7 1.7 1.7m10.5 0c0 1-.8 1.7-1.7 1.7-1 0-1.7-.8-1.7-1.7 0-1 .8-1.7 1.7-1.7.9-.1 1.7.7 1.7 1.7m10.4 0c0 1-.8 1.7-1.7 1.7-1 0-1.7-.8-1.7-1.7 0-1 .8-1.7 1.7-1.7.9-.1 1.7.7 1.7 1.7m10.5 0c0 1-.8 1.7-1.7 1.7-1 0-1.7-.8-1.7-1.7 0-1 .8-1.7 1.7-1.7.9-.1 1.7.7 1.7 1.7m10.4 0c0 1-.8 1.7-1.7 1.7-.9 0-1.7-.8-1.7-1.7 0-1 .8-1.7 1.7-1.7.9 0 1.7.7 1.7 1.7m10.5 0c0 1-.8 1.7-1.7 1.7-1 0-1.7-.8-1.7-1.7 0-1 .8-1.7 1.7-1.7.9-.1 1.7.7 1.7 1.7m10.4 0c0 1-.8 1.7-1.7 1.7-1 0-1.7-.8-1.7-1.7 0-1 .8-1.7 1.7-1.7 1-.1 1.7.7 1.7 1.7m10.5 0c0 1-.8 1.7-1.7 1.7-1 0-1.7-.8-1.7-1.7 0-1 .8-1.7 1.7-1.7.9-.1 1.7.7 1.7 1.7m10.5 0c0 1-.8 1.7-1.7 1.7-1 0-1.7-.8-1.7-1.7 0-1 .8-1.7 1.7-1.7.9-.1 1.7.7 1.7 1.7M895.2 9.7c0 1-.8 1.7-1.7 1.7-1 0-1.7-.8-1.7-1.7 0-1 .8-1.7 1.7-1.7 1 0 1.7.8 1.7 1.7m10.5 0c0 1-.8 1.7-1.7 1.7-1 0-1.7-.8-1.7-1.7 0-1 .8-1.7 1.7-1.7.9 0 1.7.8 1.7 1.7m10.5 0c0 1-.8 1.7-1.7 1.7-1 0-1.7-.8-1.7-1.7 0-1 .8-1.7 1.7-1.7.9 0 1.7.8 1.7 1.7m10.4 0c0 1-.8 1.7-1.7 1.7-.9 0-1.7-.8-1.7-1.7 0-1 .8-1.7 1.7-1.7.9 0 1.7.8 1.7 1.7m10.5 0c0 1-.8 1.7-1.7 1.7-1 0-1.7-.8-1.7-1.7 0-1 .8-1.7 1.7-1.7.9 0 1.7.8 1.7 1.7m10.4 0c0 1-.8 1.7-1.7 1.7-1 0-1.7-.8-1.7-1.7 0-1 .8-1.7 1.7-1.7 1 0 1.7.8 1.7 1.7m10.5 0c0 1-.8 1.7-1.7 1.7-.9 0-1.7-.8-1.7-1.7 0-1 .8-1.7 1.7-1.7.9 0 1.7.8 1.7 1.7m10.5 0c0 1-.8 1.7-1.7 1.7-1 0-1.7-.8-1.7-1.7 0-1 .8-1.7 1.7-1.7.9 0 1.7.8 1.7 1.7m10.4 0c0 1-.8 1.7-1.7 1.7-1 0-1.7-.8-1.7-1.7 0-1 .8-1.7 1.7-1.7.9 0 1.7.8 1.7 1.7m10.5 0c0 1-.8 1.7-1.7 1.7-1 0-1.7-.8-1.7-1.7 0-1 .8-1.7 1.7-1.7.9 0 1.7.8 1.7 1.7m10.4 0c0 1-.8 1.7-1.7 1.7-1 0-1.7-.8-1.7-1.7 0-1 .8-1.7 1.7-1.7.9 0 1.7.8 1.7 1.7m10.5 0c0 1-.8 1.7-1.7 1.7-.9 0-1.7-.8-1.7-1.7 0-1 .8-1.7 1.7-1.7.9 0 1.7.8 1.7 1.7M890 16.3c0 1-.8 1.7-1.7 1.7-1 0-1.7-.8-1.7-1.7 0-.9.8-1.7 1.7-1.7.9-.1 1.7.7 1.7 1.7m10.5 0c0 1-.8 1.7-1.7 1.7-1 0-1.7-.8-1.7-1.7 0-.9.8-1.7 1.7-1.7.9-.1 1.7.7 1.7 1.7m10.4 0c0 1-.8 1.7-1.7 1.7-1 0-1.7-.8-1.7-1.7 0-.9.8-1.7 1.7-1.7 1-.1 1.7.7 1.7 1.7m10.5 0c0 1-.8 1.7-1.7 1.7-1 0-1.7-.8-1.7-1.7 0-.9.8-1.7 1.7-1.7.9-.1 1.7.7 1.7 1.7m10.5 0c0 1-.8 1.7-1.7 1.7-1 0-1.7-.8-1.7-1.7 0-.9.8-1.7 1.7-1.7.9-.1 1.7.7 1.7 1.7m10.4 0c0 1-.8 1.7-1.7 1.7-1 0-1.7-.8-1.7-1.7 0-.9.8-1.7 1.7-1.7.9-.1 1.7.7 1.7 1.7m10.5 0c0 1-.8 1.7-1.7 1.7-1 0-1.7-.8-1.7-1.7 0-.9.8-1.7 1.7-1.7.9-.1 1.7.7 1.7 1.7m10.4 0c0 1-.8 1.7-1.7 1.7-.9 0-1.7-.8-1.7-1.7 0-.9.8-1.7 1.7-1.7.9 0 1.7.7 1.7 1.7m10.5 0c0 1-.8 1.7-1.7 1.7-1 0-1.7-.8-1.7-1.7 0-.9.8-1.7 1.7-1.7.9-.1 1.7.7 1.7 1.7m10.4 0c0 1-.8 1.7-1.7 1.7-1 0-1.7-.8-1.7-1.7 0-.9.8-1.7 1.7-1.7 1-.1 1.7.7 1.7 1.7m10.5 0c0 1-.8 1.7-1.7 1.7-1 0-1.7-.8-1.7-1.7 0-.9.8-1.7 1.7-1.7.9-.1 1.7.7 1.7 1.7m10.5 0c0 1-.8 1.7-1.7 1.7-1 0-1.7-.8-1.7-1.7 0-.9.8-1.7 1.7-1.7.9-.1 1.7.7 1.7 1.7m-109.9 6.5c0 1-.8 1.7-1.7 1.7-1 0-1.7-.8-1.7-1.7 0-1 .8-1.7 1.7-1.7 1 0 1.7.8 1.7 1.7m10.5 0c0 1-.8 1.7-1.7 1.7-1 0-1.7-.8-1.7-1.7 0-1 .8-1.7 1.7-1.7.9 0 1.7.8 1.7 1.7m10.5 0c0 1-.8 1.7-1.7 1.7-1 0-1.7-.8-1.7-1.7 0-1 .8-1.7 1.7-1.7.9 0 1.7.8 1.7 1.7m10.4 0c0 1-.8 1.7-1.7 1.7-.9 0-1.7-.8-1.7-1.7 0-1 .8-1.7 1.7-1.7.9 0 1.7.8 1.7 1.7m10.5 0c0 1-.8 1.7-1.7 1.7-1 0-1.7-.8-1.7-1.7 0-1 .8-1.7 1.7-1.7.9 0 1.7.8 1.7 1.7m10.4 0c0 1-.8 1.7-1.7 1.7-1 0-1.7-.8-1.7-1.7 0-1 .8-1.7 1.7-1.7 1 0 1.7.8 1.7 1.7m10.5 0c0 1-.8 1.7-1.7 1.7-.9 0-1.7-.8-1.7-1.7 0-1 .8-1.7 1.7-1.7.9 0 1.7.8 1.7 1.7m10.5 0c0 1-.8 1.7-1.7 1.7-1 0-1.7-.8-1.7-1.7 0-1 .8-1.7 1.7-1.7.9 0 1.7.8 1.7 1.7m10.4 0c0 1-.8 1.7-1.7 1.7-1 0-1.7-.8-1.7-1.7 0-1 .8-1.7 1.7-1.7.9 0 1.7.8 1.7 1.7m10.5 0c0 1-.8 1.7-1.7 1.7-1 0-1.7-.8-1.7-1.7 0-1 .8-1.7 1.7-1.7.9 0 1.7.8 1.7 1.7m10.4 0c0 1-.8 1.7-1.7 1.7-1 0-1.7-.8-1.7-1.7 0-1 .8-1.7 1.7-1.7.9 0 1.7.8 1.7 1.7m10.5 0c0 1-.8 1.7-1.7 1.7-.9 0-1.7-.8-1.7-1.7 0-1 .8-1.7 1.7-1.7.9 0 1.7.8 1.7 1.7M890 29.4c0 1-.8 1.7-1.7 1.7-1 0-1.7-.8-1.7-1.7 0-1 .8-1.7 1.7-1.7.9-.1 1.7.7 1.7 1.7m10.5 0c0 1-.8 1.7-1.7 1.7-1 0-1.7-.8-1.7-1.7 0-1 .8-1.7 1.7-1.7.9-.1 1.7.7 1.7 1.7m10.4 0c0 1-.8 1.7-1.7 1.7-1 0-1.7-.8-1.7-1.7 0-1 .8-1.7 1.7-1.7 1-.1 1.7.7 1.7 1.7m10.5 0c0 1-.8 1.7-1.7 1.7-1 0-1.7-.8-1.7-1.7 0-1 .8-1.7 1.7-1.7.9-.1 1.7.7 1.7 1.7m10.5 0c0 1-.8 1.7-1.7 1.7-1 0-1.7-.8-1.7-1.7 0-1 .8-1.7 1.7-1.7.9-.1 1.7.7 1.7 1.7m10.4 0c0 1-.8 1.7-1.7 1.7-1 0-1.7-.8-1.7-1.7 0-1 .8-1.7 1.7-1.7.9-.1 1.7.7 1.7 1.7m10.5 0c0 1-.8 1.7-1.7 1.7-1 0-1.7-.8-1.7-1.7 0-1 .8-1.7 1.7-1.7.9-.1 1.7.7 1.7 1.7m10.4 0c0 1-.8 1.7-1.7 1.7-.9 0-1.7-.8-1.7-1.7 0-1 .8-1.7 1.7-1.7.9 0 1.7.7 1.7 1.7m10.5 0c0 1-.8 1.7-1.7 1.7-1 0-1.7-.8-1.7-1.7 0-1 .8-1.7 1.7-1.7.9-.1 1.7.7 1.7 1.7m10.4 0c0 1-.8 1.7-1.7 1.7-1 0-1.7-.8-1.7-1.7 0-1 .8-1.7 1.7-1.7 1-.1 1.7.7 1.7 1.7m10.5 0c0 1-.8 1.7-1.7 1.7-1 0-1.7-.8-1.7-1.7 0-1 .8-1.7 1.7-1.7.9-.1 1.7.7 1.7 1.7m10.5 0c0 1-.8 1.7-1.7 1.7-1 0-1.7-.8-1.7-1.7 0-1 .8-1.7 1.7-1.7.9-.1 1.7.7 1.7 1.7m11.1-26.2c0 1-.8 1.7-1.7 1.7-.9 0-1.7-.8-1.7-1.7 0-1 .8-1.7 1.7-1.7.9 0 1.7.7 1.7 1.7m10.5 0c0 1-.8 1.7-1.7 1.7-.9 0-1.7-.8-1.7-1.7 0-1 .8-1.7 1.7-1.7.9 0 1.7.7 1.7 1.7m10.5 0c0 1-.8 1.7-1.7 1.7-1 0-1.7-.8-1.7-1.7 0-1 .8-1.7 1.7-1.7.9-.1 1.7.7 1.7 1.7m10.4 0c0 1-.8 1.7-1.7 1.7-.9 0-1.7-.8-1.7-1.7 0-1 .8-1.7 1.7-1.7.9 0 1.7.7 1.7 1.7m10.5 0c0 1-.8 1.7-1.7 1.7-1 0-1.7-.8-1.7-1.7 0-1 .8-1.7 1.7-1.7.9-.1 1.7.7 1.7 1.7m10.4 0c0 1-.8 1.7-1.7 1.7-1 0-1.7-.8-1.7-1.7 0-1 .8-1.7 1.7-1.7.9-.1 1.7.7 1.7 1.7m10.5 0c0 1-.8 1.7-1.7 1.7-1 0-1.7-.8-1.7-1.7 0-1 .8-1.7 1.7-1.7.9-.1 1.7.7 1.7 1.7m10.4 0c0 1-.8 1.7-1.7 1.7-.9 0-1.7-.8-1.7-1.7 0-1 .8-1.7 1.7-1.7.9 0 1.7.7 1.7 1.7m10.5 0c0 1-.8 1.7-1.7 1.7-1 0-1.7-.8-1.7-1.7 0-1 .8-1.7 1.7-1.7.9-.1 1.7.7 1.7 1.7m10.5 0c0 1-.8 1.7-1.7 1.7-1 0-1.7-.8-1.7-1.7 0-1 .8-1.7 1.7-1.7.9-.1 1.7.7 1.7 1.7m10.4 0c0 1-.8 1.7-1.7 1.7-1 0-1.7-.8-1.7-1.7 0-1 .8-1.7 1.7-1.7.9-.1 1.7.7 1.7 1.7m10.5 0c0 1-.8 1.7-1.7 1.7-.9 0-1.7-.8-1.7-1.7 0-1 .8-1.7 1.7-1.7.9 0 1.7.7 1.7 1.7m-109.8 6.5c0 1-.8 1.7-1.7 1.7-1 0-1.7-.8-1.7-1.7 0-1 .8-1.7 1.7-1.7.9 0 1.7.8 1.7 1.7m10.4 0c0 1-.8 1.7-1.7 1.7-1 0-1.7-.8-1.7-1.7 0-1 .8-1.7 1.7-1.7.9 0 1.7.8 1.7 1.7m10.5 0c0 1-.8 1.7-1.7 1.7-1 0-1.7-.8-1.7-1.7 0-1 .8-1.7 1.7-1.7.9 0 1.7.8 1.7 1.7m10.4 0c0 1-.8 1.7-1.7 1.7-.9 0-1.7-.8-1.7-1.7 0-1 .8-1.7 1.7-1.7.9 0 1.7.8 1.7 1.7m10.5 0c0 1-.8 1.7-1.7 1.7-1 0-1.7-.8-1.7-1.7 0-1 .8-1.7 1.7-1.7.9 0 1.7.8 1.7 1.7m10.5 0c0 1-.8 1.7-1.7 1.7-1 0-1.7-.8-1.7-1.7 0-1 .8-1.7 1.7-1.7.9 0 1.7.8 1.7 1.7m10.4 0c0 1-.8 1.7-1.7 1.7-1 0-1.7-.8-1.7-1.7 0-1 .8-1.7 1.7-1.7.9 0 1.7.8 1.7 1.7m10.5 0c0 1-.8 1.7-1.7 1.7-1 0-1.7-.8-1.7-1.7 0-1 .8-1.7 1.7-1.7.9 0 1.7.8 1.7 1.7m10.4 0c0 1-.8 1.7-1.7 1.7-1 0-1.7-.8-1.7-1.7 0-1 .8-1.7 1.7-1.7.9 0 1.7.8 1.7 1.7m10.5 0c0 1-.8 1.7-1.7 1.7-1 0-1.7-.8-1.7-1.7 0-1 .8-1.7 1.7-1.7.9 0 1.7.8 1.7 1.7m10.4 0c0 1-.8 1.7-1.7 1.7-1 0-1.8-.8-1.8-1.7 0-1 .8-1.7 1.8-1.7s1.7.8 1.7 1.7m10.5 0c0 1-.8 1.7-1.7 1.7-1 0-1.7-.8-1.7-1.7 0-1 .8-1.7 1.7-1.7.9 0 1.7.8 1.7 1.7m-120.3 6.6c0 1-.8 1.7-1.7 1.7-.9 0-1.7-.8-1.7-1.7 0-.9.8-1.7 1.7-1.7.9 0 1.7.7 1.7 1.7m10.5 0c0 1-.8 1.7-1.7 1.7-.9 0-1.7-.8-1.7-1.7 0-.9.8-1.7 1.7-1.7.9 0 1.7.7 1.7 1.7m10.5 0c0 1-.8 1.7-1.7 1.7-1 0-1.7-.8-1.7-1.7 0-.9.8-1.7 1.7-1.7.9-.1 1.7.7 1.7 1.7m10.4 0c0 1-.8 1.7-1.7 1.7-.9 0-1.7-.8-1.7-1.7 0-.9.8-1.7 1.7-1.7.9 0 1.7.7 1.7 1.7m10.5 0c0 1-.8 1.7-1.7 1.7-1 0-1.7-.8-1.7-1.7 0-.9.8-1.7 1.7-1.7.9-.1 1.7.7 1.7 1.7m10.4 0c0 1-.8 1.7-1.7 1.7-1 0-1.7-.8-1.7-1.7 0-.9.8-1.7 1.7-1.7.9-.1 1.7.7 1.7 1.7m10.5 0c0 1-.8 1.7-1.7 1.7-1 0-1.7-.8-1.7-1.7 0-.9.8-1.7 1.7-1.7.9-.1 1.7.7 1.7 1.7m10.4 0c0 1-.8 1.7-1.7 1.7-.9 0-1.7-.8-1.7-1.7 0-.9.8-1.7 1.7-1.7.9 0 1.7.7 1.7 1.7m10.5 0c0 1-.8 1.7-1.7 1.7-1 0-1.7-.8-1.7-1.7 0-.9.8-1.7 1.7-1.7.9-.1 1.7.7 1.7 1.7m10.5 0c0 1-.8 1.7-1.7 1.7-1 0-1.7-.8-1.7-1.7 0-.9.8-1.7 1.7-1.7.9-.1 1.7.7 1.7 1.7m10.4 0c0 1-.8 1.7-1.7 1.7-1 0-1.7-.8-1.7-1.7 0-.9.8-1.7 1.7-1.7.9-.1 1.7.7 1.7 1.7m10.5 0c0 1-.8 1.7-1.7 1.7-.9 0-1.7-.8-1.7-1.7 0-.9.8-1.7 1.7-1.7.9 0 1.7.7 1.7 1.7m-109.8 6.5c0 1-.8 1.7-1.7 1.7-1 0-1.7-.8-1.7-1.7 0-1 .8-1.7 1.7-1.7.9 0 1.7.8 1.7 1.7m10.4 0c0 1-.8 1.7-1.7 1.7-1 0-1.7-.8-1.7-1.7 0-1 .8-1.7 1.7-1.7.9 0 1.7.8 1.7 1.7m10.5 0c0 1-.8 1.7-1.7 1.7-1 0-1.7-.8-1.7-1.7 0-1 .8-1.7 1.7-1.7.9 0 1.7.8 1.7 1.7m10.4 0c0 1-.8 1.7-1.7 1.7-.9 0-1.7-.8-1.7-1.7 0-1 .8-1.7 1.7-1.7.9 0 1.7.8 1.7 1.7m10.5 0c0 1-.8 1.7-1.7 1.7-1 0-1.7-.8-1.7-1.7 0-1 .8-1.7 1.7-1.7.9 0 1.7.8 1.7 1.7m10.5 0c0 1-.8 1.7-1.7 1.7-1 0-1.7-.8-1.7-1.7 0-1 .8-1.7 1.7-1.7.9 0 1.7.8 1.7 1.7m10.4 0c0 1-.8 1.7-1.7 1.7-1 0-1.7-.8-1.7-1.7 0-1 .8-1.7 1.7-1.7.9 0 1.7.8 1.7 1.7m10.5 0c0 1-.8 1.7-1.7 1.7-1 0-1.7-.8-1.7-1.7 0-1 .8-1.7 1.7-1.7.9 0 1.7.8 1.7 1.7m10.4 0c0 1-.8 1.7-1.7 1.7-1 0-1.7-.8-1.7-1.7 0-1 .8-1.7 1.7-1.7.9 0 1.7.8 1.7 1.7m10.5 0c0 1-.8 1.7-1.7 1.7-1 0-1.7-.8-1.7-1.7 0-1 .8-1.7 1.7-1.7.9 0 1.7.8 1.7 1.7m10.4 0c0 1-.8 1.7-1.7 1.7-1 0-1.8-.8-1.8-1.7 0-1 .8-1.7 1.8-1.7s1.7.8 1.7 1.7m10.5 0c0 1-.8 1.7-1.7 1.7-1 0-1.7-.8-1.7-1.7 0-1 .8-1.7 1.7-1.7.9 0 1.7.8 1.7 1.7m-120.3 6.6c0 1-.8 1.7-1.7 1.7-.9 0-1.7-.8-1.7-1.7 0-1 .8-1.7 1.7-1.7.9 0 1.7.7 1.7 1.7m10.5 0c0 1-.8 1.7-1.7 1.7-.9 0-1.7-.8-1.7-1.7 0-1 .8-1.7 1.7-1.7.9 0 1.7.7 1.7 1.7m10.5 0c0 1-.8 1.7-1.7 1.7-1 0-1.7-.8-1.7-1.7 0-1 .8-1.7 1.7-1.7.9-.1 1.7.7 1.7 1.7m10.4 0c0 1-.8 1.7-1.7 1.7-.9 0-1.7-.8-1.7-1.7 0-1 .8-1.7 1.7-1.7.9 0 1.7.7 1.7 1.7m10.5 0c0 1-.8 1.7-1.7 1.7-1 0-1.7-.8-1.7-1.7 0-1 .8-1.7 1.7-1.7.9-.1 1.7.7 1.7 1.7m10.4 0c0 1-.8 1.7-1.7 1.7-1 0-1.7-.8-1.7-1.7 0-1 .8-1.7 1.7-1.7.9-.1 1.7.7 1.7 1.7m10.5 0c0 1-.8 1.7-1.7 1.7-1 0-1.7-.8-1.7-1.7 0-1 .8-1.7 1.7-1.7.9-.1 1.7.7 1.7 1.7m10.4 0c0 1-.8 1.7-1.7 1.7-.9 0-1.7-.8-1.7-1.7 0-1 .8-1.7 1.7-1.7.9 0 1.7.7 1.7 1.7m10.5 0c0 1-.8 1.7-1.7 1.7-1 0-1.7-.8-1.7-1.7 0-1 .8-1.7 1.7-1.7.9-.1 1.7.7 1.7 1.7m10.5 0c0 1-.8 1.7-1.7 1.7-1 0-1.7-.8-1.7-1.7 0-1 .8-1.7 1.7-1.7.9-.1 1.7.7 1.7 1.7m10.4 0c0 1-.8 1.7-1.7 1.7-1 0-1.7-.8-1.7-1.7 0-1 .8-1.7 1.7-1.7.9-.1 1.7.7 1.7 1.7m10.5 0c0 1-.8 1.7-1.7 1.7-.9 0-1.7-.8-1.7-1.7 0-1 .8-1.7 1.7-1.7.9 0 1.7.7 1.7 1.7m11.2-26.2c0 1-.8 1.7-1.7 1.7-1 0-1.7-.8-1.7-1.7 0-1 .8-1.7 1.7-1.7.9-.1 1.7.7 1.7 1.7m10.4 0c0 1-.8 1.7-1.7 1.7-.9 0-1.7-.8-1.7-1.7 0-1 .8-1.7 1.7-1.7.9 0 1.7.7 1.7 1.7m10.5 0c0 1-.8 1.7-1.7 1.7-.9 0-1.7-.8-1.7-1.7 0-1 .8-1.7 1.7-1.7.9 0 1.7.7 1.7 1.7m10.4 0c0 1-.8 1.7-1.7 1.7-1 0-1.7-.8-1.7-1.7 0-1 .8-1.7 1.7-1.7.9-.1 1.7.7 1.7 1.7m10.5 0c0 1-.8 1.7-1.7 1.7-1 0-1.7-.8-1.7-1.7 0-1 .8-1.7 1.7-1.7.9-.1 1.7.7 1.7 1.7m10.4 0c0 1-.8 1.7-1.7 1.7-1 0-1.7-.8-1.7-1.7 0-1 .8-1.7 1.7-1.7 1-.1 1.7.7 1.7 1.7m10.5 0c0 1-.8 1.7-1.7 1.7-1 0-1.7-.8-1.7-1.7 0-1 .8-1.7 1.7-1.7.9-.1 1.7.7 1.7 1.7m10.5 0c0 1-.8 1.7-1.7 1.7-1 0-1.7-.8-1.7-1.7 0-1 .8-1.7 1.7-1.7.9-.1 1.7.7 1.7 1.7m10.4 0c0 1-.8 1.7-1.7 1.7-1 0-1.7-.8-1.7-1.7 0-1 .8-1.7 1.7-1.7.9-.1 1.7.7 1.7 1.7m10.5 0c0 1-.8 1.7-1.7 1.7-1 0-1.7-.8-1.7-1.7 0-1 .8-1.7 1.7-1.7.9-.1 1.7.7 1.7 1.7m10.4 0c0 1-.8 1.7-1.7 1.7-1 0-1.7-.8-1.7-1.7 0-1 .8-1.7 1.7-1.7.9-.1 1.7.7 1.7 1.7m10.5 0c0 1-.8 1.7-1.7 1.7-1 0-1.7-.8-1.7-1.7 0-1 .8-1.7 1.7-1.7.9-.1 1.7.7 1.7 1.7m-109.8 6.5c0 1-.8 1.7-1.7 1.7-1 0-1.7-.8-1.7-1.7 0-1 .8-1.7 1.7-1.7.9 0 1.7.8 1.7 1.7m10.4 0c0 1-.8 1.7-1.7 1.7-1 0-1.8-.8-1.8-1.7 0-1 .8-1.7 1.8-1.7s1.7.8 1.7 1.7m10.5 0c0 1-.8 1.7-1.7 1.7-1 0-1.7-.8-1.7-1.7 0-1 .8-1.7 1.7-1.7.9 0 1.7.8 1.7 1.7m10.5 0c0 1-.8 1.7-1.7 1.7-1 0-1.7-.8-1.7-1.7 0-1 .8-1.7 1.7-1.7.9 0 1.7.8 1.7 1.7m10.4 0c0 1-.8 1.7-1.7 1.7-1 0-1.7-.8-1.7-1.7 0-1 .8-1.7 1.7-1.7.9 0 1.7.8 1.7 1.7m10.5 0c0 1-.8 1.7-1.7 1.7-1 0-1.7-.8-1.7-1.7 0-1 .8-1.7 1.7-1.7.9 0 1.7.8 1.7 1.7m10.4 0c0 1-.8 1.7-1.7 1.7-1 0-1.7-.8-1.7-1.7 0-1 .8-1.7 1.7-1.7.9 0 1.7.8 1.7 1.7m10.5 0c0 1-.8 1.7-1.7 1.7-1 0-1.7-.8-1.7-1.7 0-1 .8-1.7 1.7-1.7.9 0 1.7.8 1.7 1.7m10.4 0c0 1-.8 1.7-1.7 1.7-1 0-1.7-.8-1.7-1.7 0-1 .8-1.7 1.7-1.7 1 0 1.7.8 1.7 1.7m10.5 0c0 1-.8 1.7-1.7 1.7-1 0-1.7-.8-1.7-1.7 0-1 .8-1.7 1.7-1.7.9 0 1.7.8 1.7 1.7m10.5 0c0 1-.8 1.7-1.7 1.7-1 0-1.7-.8-1.7-1.7 0-1 .8-1.7 1.7-1.7.9 0 1.7.8 1.7 1.7m10.4 0c0 1-.8 1.7-1.7 1.7-1 0-1.8-.8-1.8-1.7 0-1 .8-1.7 1.8-1.7.9 0 1.7.8 1.7 1.7m-120.2 6.6c0 1-.8 1.7-1.7 1.7-1 0-1.7-.8-1.7-1.7 0-.9.8-1.7 1.7-1.7.9-.1 1.7.7 1.7 1.7m10.4 0c0 1-.8 1.7-1.7 1.7-.9 0-1.7-.8-1.7-1.7 0-.9.8-1.7 1.7-1.7.9 0 1.7.7 1.7 1.7m10.5 0c0 1-.8 1.7-1.7 1.7-.9 0-1.7-.8-1.7-1.7 0-.9.8-1.7 1.7-1.7.9 0 1.7.7 1.7 1.7m10.4 0c0 1-.8 1.7-1.7 1.7-1 0-1.7-.8-1.7-1.7 0-.9.8-1.7 1.7-1.7.9-.1 1.7.7 1.7 1.7m10.5 0c0 1-.8 1.7-1.7 1.7-1 0-1.7-.8-1.7-1.7 0-.9.8-1.7 1.7-1.7.9-.1 1.7.7 1.7 1.7m10.4 0c0 1-.8 1.7-1.7 1.7-1 0-1.7-.8-1.7-1.7 0-.9.8-1.7 1.7-1.7 1-.1 1.7.7 1.7 1.7m10.5 0c0 1-.8 1.7-1.7 1.7-1 0-1.7-.8-1.7-1.7 0-.9.8-1.7 1.7-1.7.9-.1 1.7.7 1.7 1.7m10.5 0c0 1-.8 1.7-1.7 1.7-1 0-1.7-.8-1.7-1.7 0-.9.8-1.7 1.7-1.7.9-.1 1.7.7 1.7 1.7m10.4 0c0 1-.8 1.7-1.7 1.7-1 0-1.7-.8-1.7-1.7 0-.9.8-1.7 1.7-1.7.9-.1 1.7.7 1.7 1.7m10.5 0c0 1-.8 1.7-1.7 1.7-1 0-1.7-.8-1.7-1.7 0-.9.8-1.7 1.7-1.7.9-.1 1.7.7 1.7 1.7m10.4 0c0 1-.8 1.7-1.7 1.7-1 0-1.7-.8-1.7-1.7 0-.9.8-1.7 1.7-1.7.9-.1 1.7.7 1.7 1.7m10.5 0c0 1-.8 1.7-1.7 1.7-1 0-1.7-.8-1.7-1.7 0-.9.8-1.7 1.7-1.7.9-.1 1.7.7 1.7 1.7m-109.8 6.5c0 1-.8 1.7-1.7 1.7-1 0-1.7-.8-1.7-1.7 0-1 .8-1.7 1.7-1.7.9 0 1.7.8 1.7 1.7m10.4 0c0 1-.8 1.7-1.7 1.7-1 0-1.8-.8-1.8-1.7 0-1 .8-1.7 1.8-1.7s1.7.8 1.7 1.7m10.5 0c0 1-.8 1.7-1.7 1.7-1 0-1.7-.8-1.7-1.7 0-1 .8-1.7 1.7-1.7.9 0 1.7.8 1.7 1.7m10.5 0c0 1-.8 1.7-1.7 1.7-1 0-1.7-.8-1.7-1.7 0-1 .8-1.7 1.7-1.7.9 0 1.7.8 1.7 1.7m10.4 0c0 1-.8 1.7-1.7 1.7-1 0-1.7-.8-1.7-1.7 0-1 .8-1.7 1.7-1.7.9 0 1.7.8 1.7 1.7m10.5 0c0 1-.8 1.7-1.7 1.7-1 0-1.7-.8-1.7-1.7 0-1 .8-1.7 1.7-1.7.9 0 1.7.8 1.7 1.7m10.4 0c0 1-.8 1.7-1.7 1.7-1 0-1.7-.8-1.7-1.7 0-1 .8-1.7 1.7-1.7.9 0 1.7.8 1.7 1.7m10.5 0c0 1-.8 1.7-1.7 1.7-1 0-1.7-.8-1.7-1.7 0-1 .8-1.7 1.7-1.7.9 0 1.7.8 1.7 1.7m10.4 0c0 1-.8 1.7-1.7 1.7-1 0-1.7-.8-1.7-1.7 0-1 .8-1.7 1.7-1.7 1 0 1.7.8 1.7 1.7m10.5 0c0 1-.8 1.7-1.7 1.7-1 0-1.7-.8-1.7-1.7 0-1 .8-1.7 1.7-1.7.9 0 1.7.8 1.7 1.7m10.5 0c0 1-.8 1.7-1.7 1.7-1 0-1.7-.8-1.7-1.7 0-1 .8-1.7 1.7-1.7.9 0 1.7.8 1.7 1.7m10.4 0c0 1-.8 1.7-1.7 1.7-1 0-1.8-.8-1.8-1.7 0-1 .8-1.7 1.8-1.7.9 0 1.7.8 1.7 1.7m-120.2 6.6c0 1-.8 1.7-1.7 1.7-1 0-1.7-.8-1.7-1.7 0-1 .8-1.7 1.7-1.7.9-.1 1.7.7 1.7 1.7m10.4 0c0 1-.8 1.7-1.7 1.7-.9 0-1.7-.8-1.7-1.7 0-1 .8-1.7 1.7-1.7.9 0 1.7.7 1.7 1.7m10.5 0c0 1-.8 1.7-1.7 1.7-.9 0-1.7-.8-1.7-1.7 0-1 .8-1.7 1.7-1.7.9 0 1.7.7 1.7 1.7m10.4 0c0 1-.8 1.7-1.7 1.7-1 0-1.7-.8-1.7-1.7 0-1 .8-1.7 1.7-1.7.9-.1 1.7.7 1.7 1.7m10.5 0c0 1-.8 1.7-1.7 1.7-1 0-1.7-.8-1.7-1.7 0-1 .8-1.7 1.7-1.7.9-.1 1.7.7 1.7 1.7m10.4 0c0 1-.8 1.7-1.7 1.7-1 0-1.7-.8-1.7-1.7 0-1 .8-1.7 1.7-1.7 1-.1 1.7.7 1.7 1.7m10.5 0c0 1-.8 1.7-1.7 1.7-1 0-1.7-.8-1.7-1.7 0-1 .8-1.7 1.7-1.7.9-.1 1.7.7 1.7 1.7m10.5 0c0 1-.8 1.7-1.7 1.7-1 0-1.7-.8-1.7-1.7 0-1 .8-1.7 1.7-1.7.9-.1 1.7.7 1.7 1.7m10.4 0c0 1-.8 1.7-1.7 1.7-1 0-1.7-.8-1.7-1.7 0-1 .8-1.7 1.7-1.7.9-.1 1.7.7 1.7 1.7m10.5 0c0 1-.8 1.7-1.7 1.7-1 0-1.7-.8-1.7-1.7 0-1 .8-1.7 1.7-1.7.9-.1 1.7.7 1.7 1.7m10.4 0c0 1-.8 1.7-1.7 1.7-1 0-1.7-.8-1.7-1.7 0-1 .8-1.7 1.7-1.7.9-.1 1.7.7 1.7 1.7m10.5 0c0 1-.8 1.7-1.7 1.7-1 0-1.7-.8-1.7-1.7 0-1 .8-1.7 1.7-1.7.9-.1 1.7.7 1.7 1.7m11.2-26.2c0 1-.8 1.7-1.7 1.7-1 0-1.7-.8-1.7-1.7 0-1 .8-1.7 1.7-1.7.9-.1 1.7.7 1.7 1.7m10.4 0c0 1-.8 1.7-1.7 1.7-1 0-1.7-.8-1.7-1.7 0-1 .8-1.7 1.7-1.7.9-.1 1.7.7 1.7 1.7m10.5 0c0 1-.8 1.7-1.7 1.7-1 0-1.7-.8-1.7-1.7 0-1 .8-1.7 1.7-1.7.9-.1 1.7.7 1.7 1.7m10.4 0c0 1-.8 1.7-1.7 1.7-1 0-1.7-.8-1.7-1.7 0-1 .8-1.7 1.7-1.7 1-.1 1.7.7 1.7 1.7m10.5 0c0 1-.8 1.7-1.7 1.7-1 0-1.7-.8-1.7-1.7 0-1 .8-1.7 1.7-1.7.9-.1 1.7.7 1.7 1.7m10.5 0c0 1-.8 1.7-1.7 1.7-1 0-1.7-.8-1.7-1.7 0-1 .8-1.7 1.7-1.7.9-.1 1.7.7 1.7 1.7m10.4 0c0 1-.8 1.7-1.7 1.7-1 0-1.7-.8-1.7-1.7 0-1 .8-1.7 1.7-1.7.9-.1 1.7.7 1.7 1.7m10.5 0c0 1-.8 1.7-1.7 1.7-1 0-1.7-.8-1.7-1.7 0-1 .8-1.7 1.7-1.7.9-.1 1.7.7 1.7 1.7m10.4 0c0 1-.8 1.7-1.7 1.7-.9 0-1.7-.8-1.7-1.7 0-1 .8-1.7 1.7-1.7.9 0 1.7.7 1.7 1.7m10.5 0c0 1-.8 1.7-1.7 1.7-1 0-1.8-.8-1.8-1.7 0-1 .8-1.7 1.8-1.7.9-.1 1.7.7 1.7 1.7m-88.9 6.5c0 1-.8 1.7-1.7 1.7-1 0-1.7-.8-1.7-1.7 0-1 .8-1.7 1.7-1.7.9 0 1.7.8 1.7 1.7m10.5 0c0 1-.8 1.7-1.7 1.7-.9 0-1.7-.8-1.7-1.7 0-1 .8-1.7 1.7-1.7.9 0 1.7.8 1.7 1.7m10.4 0c0 1-.8 1.7-1.7 1.7-1 0-1.7-.8-1.7-1.7 0-1 .8-1.7 1.7-1.7.9 0 1.7.8 1.7 1.7m10.5 0c0 1-.8 1.7-1.7 1.7-1 0-1.7-.8-1.7-1.7 0-1 .8-1.7 1.7-1.7.9 0 1.7.8 1.7 1.7m10.4 0c0 1-.8 1.7-1.8 1.7s-1.7-.8-1.7-1.7c0-1 .8-1.7 1.7-1.7 1 0 1.8.8 1.8 1.7m10.5 0c0 1-.8 1.7-1.7 1.7-1 0-1.7-.8-1.7-1.7 0-1 .8-1.7 1.7-1.7.9 0 1.7.8 1.7 1.7m10.4 0c0 1-.8 1.7-1.7 1.7-1 0-1.7-.8-1.7-1.7 0-1 .8-1.7 1.7-1.7 1 0 1.7.8 1.7 1.7m10.5 0c0 1-.8 1.7-1.7 1.7-1 0-1.7-.8-1.7-1.7 0-1 .8-1.7 1.7-1.7.9 0 1.7.8 1.7 1.7m10.5 0c0 1-.8 1.7-1.7 1.7-1 0-1.7-.8-1.7-1.7 0-1 .8-1.7 1.7-1.7.9 0 1.7.8 1.7 1.7m10.4 0c0 1-.8 1.7-1.7 1.7-1 0-1.7-.8-1.7-1.7 0-1 .8-1.7 1.7-1.7.9 0 1.7.8 1.7 1.7m-99.3 6.6c0 1-.8 1.7-1.7 1.7-1 0-1.7-.8-1.7-1.7 0-.9.8-1.7 1.7-1.7.9-.1 1.7.7 1.7 1.7m10.4 0c0 1-.8 1.7-1.7 1.7-1 0-1.7-.8-1.7-1.7 0-.9.8-1.7 1.7-1.7.9-.1 1.7.7 1.7 1.7m10.5 0c0 1-.8 1.7-1.7 1.7-1 0-1.7-.8-1.7-1.7 0-.9.8-1.7 1.7-1.7.9-.1 1.7.7 1.7 1.7m10.4 0c0 1-.8 1.7-1.7 1.7-1 0-1.7-.8-1.7-1.7 0-.9.8-1.7 1.7-1.7 1-.1 1.7.7 1.7 1.7m10.5 0c0 1-.8 1.7-1.7 1.7-1 0-1.7-.8-1.7-1.7 0-.9.8-1.7 1.7-1.7.9-.1 1.7.7 1.7 1.7m10.5 0c0 1-.8 1.7-1.7 1.7-1 0-1.7-.8-1.7-1.7 0-.9.8-1.7 1.7-1.7.9-.1 1.7.7 1.7 1.7m10.4 0c0 1-.8 1.7-1.7 1.7-1 0-1.7-.8-1.7-1.7 0-.9.8-1.7 1.7-1.7.9-.1 1.7.7 1.7 1.7m10.5 0c0 1-.8 1.7-1.7 1.7-1 0-1.7-.8-1.7-1.7 0-.9.8-1.7 1.7-1.7.9-.1 1.7.7 1.7 1.7m10.4 0c0 1-.8 1.7-1.7 1.7-.9 0-1.7-.8-1.7-1.7 0-.9.8-1.7 1.7-1.7.9 0 1.7.7 1.7 1.7m10.5 0c0 1-.8 1.7-1.7 1.7-1 0-1.8-.8-1.8-1.7 0-.9.8-1.7 1.8-1.7.9-.1 1.7.7 1.7 1.7m-88.9 6.5c0 1-.8 1.7-1.7 1.7-1 0-1.7-.8-1.7-1.7 0-1 .8-1.7 1.7-1.7.9 0 1.7.8 1.7 1.7m10.5 0c0 1-.8 1.7-1.7 1.7-.9 0-1.7-.8-1.7-1.7 0-1 .8-1.7 1.7-1.7.9 0 1.7.8 1.7 1.7m10.4 0c0 1-.8 1.7-1.7 1.7-1 0-1.7-.8-1.7-1.7 0-1 .8-1.7 1.7-1.7.9 0 1.7.8 1.7 1.7m10.5 0c0 1-.8 1.7-1.7 1.7-1 0-1.7-.8-1.7-1.7 0-1 .8-1.7 1.7-1.7.9 0 1.7.8 1.7 1.7m10.4 0c0 1-.8 1.7-1.8 1.7s-1.7-.8-1.7-1.7c0-1 .8-1.7 1.7-1.7 1 0 1.8.8 1.8 1.7m10.5 0c0 1-.8 1.7-1.7 1.7-1 0-1.7-.8-1.7-1.7 0-1 .8-1.7 1.7-1.7.9 0 1.7.8 1.7 1.7m10.4 0c0 1-.8 1.7-1.7 1.7-1 0-1.7-.8-1.7-1.7 0-1 .8-1.7 1.7-1.7 1 0 1.7.8 1.7 1.7m10.5 0c0 1-.8 1.7-1.7 1.7-1 0-1.7-.8-1.7-1.7 0-1 .8-1.7 1.7-1.7.9 0 1.7.8 1.7 1.7m10.5 0c0 1-.8 1.7-1.7 1.7-1 0-1.7-.8-1.7-1.7 0-1 .8-1.7 1.7-1.7.9 0 1.7.8 1.7 1.7m10.4 0c0 1-.8 1.7-1.7 1.7-1 0-1.7-.8-1.7-1.7 0-1 .8-1.7 1.7-1.7.9 0 1.7.8 1.7 1.7m-99.3 6.6c0 1-.8 1.7-1.7 1.7-1 0-1.7-.8-1.7-1.7 0-1 .8-1.7 1.7-1.7.9-.1 1.7.7 1.7 1.7m10.4 0c0 1-.8 1.7-1.7 1.7-1 0-1.7-.8-1.7-1.7 0-1 .8-1.7 1.7-1.7.9-.1 1.7.7 1.7 1.7m10.5 0c0 1-.8 1.7-1.7 1.7-1 0-1.7-.8-1.7-1.7 0-1 .8-1.7 1.7-1.7.9-.1 1.7.7 1.7 1.7m10.4 0c0 1-.8 1.7-1.7 1.7-1 0-1.7-.8-1.7-1.7 0-1 .8-1.7 1.7-1.7 1-.1 1.7.7 1.7 1.7m10.5 0c0 1-.8 1.7-1.7 1.7-1 0-1.7-.8-1.7-1.7 0-1 .8-1.7 1.7-1.7.9-.1 1.7.7 1.7 1.7m10.5 0c0 1-.8 1.7-1.7 1.7-1 0-1.7-.8-1.7-1.7 0-1 .8-1.7 1.7-1.7.9-.1 1.7.7 1.7 1.7m10.4 0c0 1-.8 1.7-1.7 1.7-1 0-1.7-.8-1.7-1.7 0-1 .8-1.7 1.7-1.7.9-.1 1.7.7 1.7 1.7m10.5 0c0 1-.8 1.7-1.7 1.7-1 0-1.7-.8-1.7-1.7 0-1 .8-1.7 1.7-1.7.9-.1 1.7.7 1.7 1.7m10.4 0c0 1-.8 1.7-1.7 1.7-.9 0-1.7-.8-1.7-1.7 0-1 .8-1.7 1.7-1.7.9 0 1.7.7 1.7 1.7m10.5 0c0 1-.8 1.7-1.7 1.7-1 0-1.8-.8-1.8-1.7 0-1 .8-1.7 1.8-1.7.9-.1 1.7.7 1.7 1.7" fill="#586FB4" fill-rule="nonzero"/></svg>